<svg width="13" height="13" viewBox="0 0 13 13" fill="none" xmlns="http://www.w3.org/2000/svg">
<g clip-path="url(#clip0_1_15245)">
<path d="M6.5 0C2.91576 0 0 2.91576 0 6.5C0 10.0842 2.91576 13 6.5 13C10.0842 13 13 10.0842 13 6.5C13 2.91576 10.0842 0 6.5 0Z" fill="#D41000"/>
<path d="M9.34388 7.04128H7.04176V9.34339C7.04176 9.64243 6.79916 9.88503 6.50013 9.88503C6.2011 9.88503 5.9585 9.64243 5.9585 9.34339V7.04128H3.65638C3.35735 7.04128 3.11475 6.79868 3.11475 6.49964C3.11475 6.20061 3.35735 5.95801 3.65638 5.95801H5.9585V3.65589C5.9585 3.35686 6.2011 3.11426 6.50013 3.11426C6.79916 3.11426 7.04176 3.35686 7.04176 3.65589V5.95801H9.34388C9.64291 5.95801 9.88551 6.20061 9.88551 6.49964C9.88551 6.79868 9.64291 7.04128 9.34388 7.04128Z" fill="#FAFAFA"/>
</g>
<defs>
<clipPath id="clip0_1_15245">
<rect width="13" height="13" fill="white"/>
</clipPath>
</defs>
</svg>
