<svg width="31" height="31" viewBox="0 0 31 31" fill="none" xmlns="http://www.w3.org/2000/svg">
<circle cx="15.5" cy="15.5" r="15" fill="#FCD417" fill-opacity="0.13" stroke="#D41000"/>
<g clip-path="url(#clip0_1_15207)">
<path d="M5.15625 8.30806C5.15625 6.46485 6.66374 4.97373 8.51305 5.00035C10.3044 5.02611 11.761 6.49521 11.7723 8.28669C11.7787 9.28997 11.3382 10.1904 10.6384 10.8011C10.5646 10.8656 10.5752 10.9832 10.6596 11.0331L11.2829 11.4019C11.3837 11.4616 11.3414 11.616 11.2243 11.616L8.40169 11.6154C6.60361 11.5819 5.15625 10.1141 5.15625 8.30806Z" fill="#7ACAA6"/>
<path d="M11.283 11.402L10.6596 11.0332C10.5757 10.9835 10.5641 10.8661 10.6375 10.802C11.3453 10.1847 11.788 9.2712 11.772 8.25459C11.7442 6.49613 10.321 5.05267 8.56302 5.00144C8.31373 4.99418 8.07042 5.01456 7.83594 5.05964C9.35544 5.35093 10.5135 6.6903 10.5236 8.28667C10.5284 9.05977 10.268 9.7718 9.82811 10.3373C9.56245 10.6787 9.64879 11.1739 10.0211 11.3942L10.0342 11.4019C10.1338 11.4609 10.0934 11.6124 9.97925 11.6157L11.2243 11.616C11.3414 11.6161 11.3837 11.4616 11.283 11.402Z" fill="#57BE92"/>
<path d="M21.275 17.0075H13.7706C11.8962 17.0075 10.8705 14.8232 12.0676 13.3809L12.1342 13.3007C12.6616 12.6653 12.9503 11.8656 12.9503 11.0398V9.59268C12.9503 7.0562 15.0065 5 17.543 5C20.0795 5 22.1357 7.0562 22.1357 9.59268V11.0887C22.1357 11.9231 22.4304 12.7306 22.9679 13.3689C24.1799 14.8082 23.1567 17.0075 21.275 17.0075Z" fill="#C59191"/>
<path d="M25.2197 20.7265V25.6877H9.82568V20.7638C9.82568 19.649 10.4938 18.6429 11.5209 18.2106L14.006 17.1302L14.8427 16.7664C15.4776 16.4904 15.8882 15.8641 15.8882 15.1717V14.8506H19.1567V15.1553C19.1567 15.8505 19.5714 16.4793 20.2108 16.7533L23.5721 18.1942C24.5737 18.638 25.2197 19.6305 25.2197 20.7265Z" fill="white"/>
<path d="M14.0056 18.313C14.8537 18.5665 16.1021 18.8368 17.6238 18.8102C19.0516 18.7852 20.2237 18.5076 21.0392 18.2471L21.4445 17.2821L20.2105 16.7532C19.5712 16.4792 19.1567 15.8506 19.1567 15.1551V14.8506H15.8882V15.1717C15.8882 15.8639 15.4775 16.4902 14.8427 16.7662L13.8433 17.2008L14.0056 18.313Z" fill="#FFCEBF"/>
<path d="M23.572 18.1936L21.04 17.1084L21.0396 17.1084V25.6873H25.2198V20.7262C25.2198 19.6304 24.5738 18.6376 23.572 18.1936Z" fill="#8795DE"/>
<path d="M14.006 17.1299V25.6874H9.82568V20.7635C9.82568 19.6487 10.4938 18.6425 11.5209 18.2102L14.006 17.1299Z" fill="#8795DE"/>
<path d="M18.6559 16.6446C19.0319 16.6446 19.3902 16.5691 19.7168 16.4328C19.3665 16.1094 19.1571 15.6492 19.1571 15.1551V14.8506H15.8886V15.1716C15.8886 15.4217 15.8347 15.6631 15.7363 15.8825C16.2313 16.3543 16.9008 16.6445 17.6386 16.6445L18.6559 16.6446Z" fill="#FFB09E"/>
<path d="M20.7894 9.934V12.638C20.7894 14.1613 19.5545 15.3961 18.0313 15.3961H17.014C15.4907 15.3961 14.2559 14.1612 14.2559 12.638V9.934C14.2559 8.94302 15.0592 8.13965 16.0502 8.13965H18.9951C19.9861 8.13969 20.7894 8.94302 20.7894 9.934Z" fill="#FFCEBF"/>
<path d="M20.7895 11.3408C20.7882 11.3446 20.7867 11.3482 20.7856 11.352C20.6859 11.6963 20.4242 12.3467 19.7918 12.8344C19.4974 13.0615 19.1615 13.2255 18.7936 13.3221C18.6268 13.3658 18.5271 13.5365 18.5708 13.7033C18.6077 13.8435 18.7341 13.9363 18.8726 13.9363C18.8988 13.9363 18.9255 13.933 18.9521 13.926C19.4013 13.8082 19.8121 13.6072 20.1732 13.3288C20.4225 13.1366 20.6243 12.9242 20.7877 12.7107C20.7883 12.6865 20.7895 12.6624 20.7895 12.638V11.3408H20.7895Z" fill="#7A6D79"/>
<path d="M18.4513 14.1854H17.7197C17.3867 14.1854 17.1167 13.9155 17.1167 13.5825C17.1167 13.2495 17.3867 12.9795 17.7197 12.9795H18.4513C18.7843 12.9795 19.0542 13.2495 19.0542 13.5825C19.0542 13.9155 18.7843 14.1854 18.4513 14.1854Z" fill="#685E68"/>
<path d="M18.1746 7.42387C18.2447 6.54039 19.0905 5.95407 19.9 5.65039C21.2391 6.45278 22.1357 7.9179 22.1357 9.59261V9.90835C22.0616 9.92389 21.988 9.93751 21.9151 9.94838C21.4691 10.015 21.0894 9.98615 20.8299 9.94838C19.158 9.72566 18.09 8.49089 18.1746 7.42387Z" fill="#B98080"/>
<path d="M17.5428 5C18.58 5 19.5369 5.34396 20.3057 5.92388C19.9222 6.59124 19.0415 7.91071 17.3901 8.88754C16.1641 9.61274 15.0081 9.85641 14.2962 9.94841H12.9502V9.59264C12.9502 7.0562 15.0063 5 17.5428 5Z" fill="#C59191"/>
<path d="M22.6763 25.6878H12.6827L12.1315 20.4881C12.0924 20.1193 12.3815 19.7979 12.7524 19.7979H22.6067C22.9775 19.7979 23.2666 20.1193 23.2276 20.4881L22.6763 25.6878Z" fill="#EFEDEF"/>
<path d="M22.6067 19.7979H21.3579C21.7288 19.7979 22.0179 20.1193 21.9788 20.4881L21.4276 25.6879H22.6764L23.2276 20.4881C23.2667 20.1193 22.9776 19.7979 22.6067 19.7979Z" fill="#E5E1E5"/>
<path d="M25.6924 26H5.30762C5.13769 26 5 25.8623 5 25.6924C5 25.5225 5.13769 25.3848 5.30762 25.3848H25.6924C25.8623 25.3848 26 25.5225 26 25.6924C26 25.8623 25.8623 26 25.6924 26Z" fill="#C9BFC8"/>
<path d="M17.6798 23.6174C18.1626 23.6174 18.5539 23.226 18.5539 22.7433C18.5539 22.2605 18.1626 21.8691 17.6798 21.8691C17.197 21.8691 16.8057 22.2605 16.8057 22.7433C16.8057 23.226 17.197 23.6174 17.6798 23.6174Z" fill="#C9BFC8"/>
<path d="M7.21549 8.62043C7.3879 8.62043 7.52766 8.48067 7.52766 8.30826C7.52766 8.13586 7.3879 7.99609 7.21549 7.99609C7.04308 7.99609 6.90332 8.13586 6.90332 8.30826C6.90332 8.48067 7.04308 8.62043 7.21549 8.62043Z" fill="white"/>
<path d="M8.46403 8.62043C8.63643 8.62043 8.7762 8.48067 8.7762 8.30826C8.7762 8.13586 8.63643 7.99609 8.46403 7.99609C8.29162 7.99609 8.15186 8.13586 8.15186 8.30826C8.15186 8.48067 8.29162 8.62043 8.46403 8.62043Z" fill="white"/>
<path d="M9.71305 8.62043C9.88546 8.62043 10.0252 8.48067 10.0252 8.30826C10.0252 8.13586 9.88546 7.99609 9.71305 7.99609C9.54064 7.99609 9.40088 8.13586 9.40088 8.30826C9.40088 8.48067 9.54064 8.62043 9.71305 8.62043Z" fill="white"/>
</g>
<defs>
<clipPath id="clip0_1_15207">
<rect width="21" height="21" fill="white" transform="translate(5 5)"/>
</clipPath>
</defs>
</svg>
