<svg width="24" height="24" viewBox="0 0 24 24" fill="none" xmlns="http://www.w3.org/2000/svg">
<g clip-path="url(#clip0_1_12581)">
<path d="M21.6032 5.93925L12.3799 0.109969C12.1479 -0.0366563 11.8523 -0.0366563 11.6204 0.109969L2.39704 5.93925C2.12952 6.10828 2.00605 6.43383 2.09399 6.73777C2.18197 7.04175 2.46032 7.25091 2.77677 7.25091H21.2234C21.5398 7.25091 21.8181 7.04175 21.9062 6.73777C21.9942 6.43383 21.8706 6.10828 21.6032 5.93925Z" fill="#8CBCFF"/>
<path d="M20.0107 7.67578H17.537C17.1444 7.67578 16.8262 7.99402 16.8262 8.38659V18.7973C16.8262 19.1899 17.1444 19.5081 17.537 19.5081H20.0107C20.4032 19.5081 20.7215 19.1899 20.7215 18.7973V8.38659C20.7215 7.99402 20.4032 7.67578 20.0107 7.67578Z" fill="#8CBCFF"/>
<path d="M13.2367 7.67578H10.7631C10.3705 7.67578 10.0522 7.99402 10.0522 8.38659V18.7973C10.0522 19.1899 10.3705 19.5081 10.7631 19.5081H13.2367C13.6293 19.5081 13.9476 19.1899 13.9476 18.7973V8.38659C13.9476 7.99402 13.6294 7.67578 13.2367 7.67578Z" fill="#8CBCFF"/>
<path d="M6.41497 7.67578H3.94128C3.5487 7.67578 3.23047 7.99402 3.23047 8.38659V18.7973C3.23047 19.1899 3.5487 19.5081 3.94128 19.5081H6.41497C6.80755 19.5081 7.12578 19.1899 7.12578 18.7973V8.38659C7.12578 7.99402 6.8075 7.67578 6.41497 7.67578Z" fill="#8CBCFF"/>
<path d="M6.41458 7.67578H5.17773V19.5085H6.41458C6.80697 19.5085 7.12539 19.19 7.12539 18.7977V8.38659C7.12539 7.9942 6.80692 7.67578 6.41458 7.67578Z" fill="#6AA9FF"/>
<path d="M22.5412 5.8291H1.45838C0.728578 5.8291 0.134766 6.42287 0.134766 7.15271V8.51345C0.134766 9.24324 0.728531 9.83706 1.45838 9.83706H22.5412C23.271 9.83706 23.8649 9.24329 23.8649 8.51345V7.15271C23.8648 6.42282 23.271 5.8291 22.5412 5.8291Z" fill="#2682FF"/>
<path d="M21.2229 17.4053H2.77624C2.38366 17.4053 2.06543 17.7235 2.06543 18.1161V20.7024C2.06543 21.095 2.38366 21.4132 2.77624 21.4132H21.2229C21.6154 21.4132 21.9337 21.095 21.9337 20.7024V18.1161C21.9337 17.7235 21.6155 17.4053 21.2229 17.4053Z" fill="#2682FF"/>
<path d="M23.154 19.9922H0.845578C0.453 19.9922 0.134766 20.3104 0.134766 20.703V23.2893C0.134766 23.6819 0.453 24.0001 0.845578 24.0001H23.154C23.5466 24.0001 23.8648 23.6819 23.8648 23.2893V20.703C23.8649 20.3104 23.5466 19.9922 23.154 19.9922Z" fill="#0051BF"/>
<path d="M21.906 6.73805C21.8183 7.0418 21.5396 7.25123 21.2231 7.25123H12V0C12.1317 0 12.2635 0.0364688 12.3796 0.109922L21.4292 5.82961L21.6031 5.93953C21.8704 6.10828 21.9941 6.43383 21.906 6.73805Z" fill="#6AA9FF"/>
<path d="M20.0102 7.67578H18.7734V19.5085H20.0102C20.4026 19.5085 20.721 19.19 20.721 18.7977V8.38659C20.721 7.9942 20.4026 7.67578 20.0102 7.67578Z" fill="#6AA9FF"/>
<path d="M13.2368 7.67578H12V19.5085H13.2368C13.6292 19.5085 13.9477 19.19 13.9477 18.7977V8.38659C13.9477 7.9942 13.6292 7.67578 13.2368 7.67578Z" fill="#6AA9FF"/>
<path d="M23.865 7.15359V8.51409C23.865 9.24384 23.2712 9.83766 22.5414 9.83766H12V5.83008H22.5414C23.2712 5.83008 23.865 6.42384 23.865 7.15359Z" fill="#046EFF"/>
<path d="M21.9339 18.1171V20.7035C21.9339 21.0959 21.6159 21.4143 21.2231 21.4143H12V17.4062H21.2231C21.6159 17.4062 21.9339 17.7247 21.9339 18.1171Z" fill="#046EFF"/>
<path d="M23.865 20.703V23.2894C23.865 23.6818 23.547 24.0002 23.1541 24.0002H12V19.9922H23.1541C23.547 19.9922 23.865 20.3101 23.865 20.703Z" fill="#00347B"/>
</g>
<defs>
<clipPath id="clip0_1_12581">
<rect width="24" height="24" fill="white"/>
</clipPath>
</defs>
</svg>
