<svg width="23" height="23" viewBox="0 0 23 23" fill="none" xmlns="http://www.w3.org/2000/svg">
<g clip-path="url(#clip0_1_12794)">
<path d="M20.1671 3.93644H2.8332C2.3989 3.93644 2.04688 3.58441 2.04688 3.15012V0.786325C2.04688 0.352028 2.3989 0 2.8332 0H20.1671C20.6014 0 20.9535 0.352028 20.9535 0.786325V3.15012C20.9535 3.58441 20.6014 3.93644 20.1671 3.93644Z" fill="#6262F4"/>
<path d="M18.6754 1.96484H4.3252V21.693L5.95589 22.9997L7.8379 21.693L9.66911 22.9997L11.5003 21.693L13.3315 22.9997L15.1627 21.693L17.0447 22.9997L18.6754 21.693V1.96484Z" fill="#DFDEF9"/>
<path d="M16.0115 14.3411H15.3824C15.2467 14.3411 15.1367 14.2311 15.1367 14.0953C15.1367 13.9596 15.2467 13.8496 15.3824 13.8496H16.0115C16.1472 13.8496 16.2572 13.9596 16.2572 14.0953C16.2572 14.2311 16.1472 14.3411 16.0115 14.3411Z" fill="#AC9EF9"/>
<path d="M13.7027 14.3411H6.86145C6.72571 14.3411 6.61572 14.2311 6.61572 14.0953C6.61572 13.9596 6.72571 13.8496 6.86145 13.8496H13.7027C13.8384 13.8496 13.9484 13.9596 13.9484 14.0953C13.9484 14.2311 13.8384 14.3411 13.7027 14.3411Z" fill="#AC9EF9"/>
<path d="M16.0115 16.7747H6.86145C6.72571 16.7747 6.61572 16.6647 6.61572 16.5289C6.61572 16.3932 6.72571 16.2832 6.86145 16.2832H16.0115C16.1472 16.2832 16.2572 16.3932 16.2572 16.5289C16.2572 16.6647 16.1472 16.7747 16.0115 16.7747Z" fill="#AC9EF9"/>
<path d="M16.0115 19.2082H15.3824C15.2467 19.2082 15.1367 19.0983 15.1367 18.9625C15.1367 18.8268 15.2467 18.7168 15.3824 18.7168H16.0115C16.1472 18.7168 16.2572 18.8268 16.2572 18.9625C16.2572 19.0983 16.1472 19.2082 16.0115 19.2082Z" fill="#AC9EF9"/>
<path d="M13.7027 19.2082H6.86145C6.72571 19.2082 6.61572 19.0983 6.61572 18.9625C6.61572 18.8268 6.72571 18.7168 6.86145 18.7168H13.7027C13.8384 18.7168 13.9484 18.8268 13.9484 18.9625C13.9484 19.0983 13.8384 19.2082 13.7027 19.2082Z" fill="#AC9EF9"/>
<path d="M6.86133 4.17676H11.1162V6.989H6.86133V4.17676Z" fill="#AC9EF9"/>
<path d="M16.1391 4.63501H13.2159C13.0802 4.63501 12.9702 4.52502 12.9702 4.38928C12.9702 4.25354 13.0802 4.14355 13.2159 4.14355H16.1391C16.2748 4.14355 16.3848 4.25354 16.3848 4.38928C16.3848 4.52502 16.2748 4.63501 16.1391 4.63501Z" fill="#AC9EF9"/>
<path d="M16.1391 7.0227H13.2159C13.0802 7.0227 12.9702 6.91272 12.9702 6.77698C12.9702 6.64124 13.0802 6.53125 13.2159 6.53125H16.1391C16.2748 6.53125 16.3848 6.64124 16.3848 6.77698C16.3848 6.91272 16.2748 7.0227 16.1391 7.0227Z" fill="#AC9EF9"/>
<path d="M15.2801 10.0405V9.23798C15.4423 9.2712 15.5967 9.34275 15.7295 9.4467C15.7628 9.47009 15.8018 9.48272 15.8425 9.48331C15.9691 9.48331 16.0731 9.37789 16.0745 9.2482C16.0748 9.19114 16.0534 9.13738 16.0126 9.09511C15.8072 8.91489 15.5471 8.80466 15.2778 8.78318V8.52188C15.2778 8.42457 15.2007 8.3454 15.1097 8.3454C15.0118 8.33626 14.9228 8.42172 14.9233 8.52188V8.7737C14.3926 8.82235 14.0243 9.17084 14.0243 9.62819C14.0243 10.1756 14.4471 10.345 14.9233 10.4783V11.3989C14.7071 11.3634 14.5054 11.269 14.3375 11.1244C14.2994 11.0933 14.2513 11.0756 14.1996 11.0745C14.0757 11.0833 13.9798 11.19 13.9815 11.3169C13.9812 11.3739 14.0025 11.4277 14.0428 11.4695C14.2865 11.6942 14.599 11.8264 14.9256 11.8435V12.0846C14.9245 12.1826 15.0129 12.2683 15.1076 12.2614C15.2028 12.2614 15.2801 12.1821 15.2801 12.0846V11.8378C15.9511 11.7818 16.191 11.3364 16.191 10.9344C16.191 10.3512 15.7246 10.1652 15.2801 10.0405ZM15.7009 10.988C15.7009 11.1586 15.5896 11.3543 15.2801 11.4042V10.5869C15.5356 10.6652 15.703 10.7667 15.7009 10.988ZM14.9256 9.21812V9.94636C14.6928 9.87446 14.5191 9.79774 14.5191 9.599C14.5191 9.3947 14.6776 9.24751 14.9256 9.21812Z" fill="#AC9EF9"/>
<path d="M12.0853 11.8967H6.86145C6.72571 11.8967 6.61572 11.7867 6.61572 11.651C6.61572 11.5153 6.72571 11.4053 6.86145 11.4053H12.0853C12.2211 11.4053 12.3311 11.5153 12.3311 11.651C12.3311 11.7867 12.2211 11.8967 12.0853 11.8967Z" fill="#AC9EF9"/>
<path d="M12.0853 9.45923H6.86145C6.72571 9.45923 6.61572 9.34924 6.61572 9.2135C6.61572 9.07776 6.72571 8.96777 6.86145 8.96777H12.0853C12.2211 8.96777 12.3311 9.07776 12.3311 9.2135C12.3311 9.34924 12.2211 9.45923 12.0853 9.45923Z" fill="#AC9EF9"/>
<path d="M19.0957 18.8864C20.9535 18.8864 22.4595 17.3831 22.4595 15.5287C22.4595 13.6742 20.9535 12.1709 19.0957 12.1709C17.238 12.1709 15.7319 13.6742 15.7319 15.5287C15.7319 17.3831 17.238 18.8864 19.0957 18.8864Z" fill="#35C9AD"/>
<path d="M18.3249 16.8028L17.5857 16.2013C17.4805 16.1157 17.4646 15.9608 17.5503 15.8556C17.636 15.7504 17.7907 15.7344 17.896 15.8201L18.4547 16.2748L20.2688 14.2806C20.3601 14.1801 20.5156 14.1729 20.6159 14.2642C20.7163 14.3554 20.7236 14.5109 20.6323 14.6112L18.6617 16.7775C18.6135 16.8306 18.4395 16.8714 18.3249 16.8028Z" fill="white"/>
<path d="M3.90433 18.8864C5.7621 18.8864 7.26813 17.3831 7.26813 15.5287C7.26813 13.6742 5.7621 12.1709 3.90433 12.1709C2.04655 12.1709 0.540527 13.6742 0.540527 15.5287C0.540527 17.3831 2.04655 18.8864 3.90433 18.8864Z" fill="#FFD085"/>
<path d="M4.098 15.2661V14.4636C4.26018 14.4968 4.4146 14.5683 4.54739 14.6723C4.58071 14.6957 4.61963 14.7083 4.66042 14.7089C4.78697 14.7089 4.89101 14.6035 4.89239 14.4738C4.89263 14.4167 4.87125 14.363 4.83046 14.3207C4.62504 14.1405 4.36501 14.0302 4.09569 14.0088V13.7475C4.09569 13.6502 4.01858 13.571 3.92761 13.571C3.82972 13.5618 3.74067 13.6473 3.74116 13.7475V13.9993C3.21049 14.0479 2.84219 14.3964 2.84219 14.8538C2.84219 15.4012 3.26499 15.5706 3.74116 15.7038V16.6245C3.52502 16.589 3.32327 16.4946 3.15539 16.35C3.11726 16.3189 3.06919 16.3012 3.01749 16.3001C2.89355 16.3089 2.79771 16.4156 2.79934 16.5425C2.79909 16.5995 2.82042 16.6533 2.86072 16.6951C3.10433 16.9197 3.4169 17.052 3.74352 17.0691V17.3102C3.74239 17.4082 3.83075 17.4939 3.9255 17.4869C4.02065 17.4869 4.098 17.4077 4.098 17.3102V17.0634C4.76898 17.0075 5.00886 16.562 5.00886 16.16C5.00891 15.5768 4.54257 15.3908 4.098 15.2661ZM4.51883 16.2136C4.51883 16.3842 4.40752 16.5799 4.09805 16.6297V15.8125C4.35356 15.8907 4.5209 15.9923 4.51883 16.2136ZM3.74352 14.4437V15.1719C3.51071 15.1 3.33699 15.0233 3.33699 14.8246C3.33699 14.6203 3.49548 14.4731 3.74352 14.4437Z" fill="white"/>
</g>
<defs>
<clipPath id="clip0_1_12794">
<rect width="23" height="23" fill="white"/>
</clipPath>
</defs>
</svg>
