<svg width="12" height="13" viewBox="0 0 12 13" fill="none" xmlns="http://www.w3.org/2000/svg">
<g clip-path="url(#clip0_1_15443)">
<path d="M7.02883 1.55881C6.29222 1.0609 5.41934 0.787109 4.51766 0.787109C2.06316 0.787109 0 2.79127 0 5.35742C0 6.25714 0.255028 7.11963 0.73946 7.86452L0.0627375 10.193C-0.00875731 10.4389 0.159346 10.6895 0.393917 10.6895C0.447549 10.6895 0.50153 10.6759 0.55134 10.6481L2.60935 9.50127C2.69269 9.5406 2.77706 9.57719 2.8623 9.61116C2.38581 8.79607 2.13141 7.86043 2.13141 6.88086C2.13141 3.96355 4.37119 1.72077 7.02883 1.55881Z" fill="#34A853"/>
<path d="M11.1225 9.38796C11.607 8.64307 11.862 7.78058 11.862 6.88086C11.862 4.31377 9.79794 2.31055 7.34432 2.31055C4.88982 2.31055 2.82666 4.31471 2.82666 6.88086C2.82666 9.44795 4.8907 11.4512 7.34432 11.4512C8.00267 11.4512 8.65866 11.3041 9.25251 11.0247L11.3106 12.1715C11.4355 12.2411 11.5864 12.2217 11.6932 12.1222C11.8 12.0228 11.8418 11.8628 11.7993 11.7165L11.1225 9.38796ZM5.9311 7.26172C5.73918 7.26172 5.58359 7.0912 5.58359 6.88086C5.58359 6.67052 5.73918 6.5 5.9311 6.5C6.12302 6.5 6.27862 6.67052 6.27862 6.88086C6.27862 7.0912 6.12302 7.26172 5.9311 7.26172ZM7.32115 7.26172C7.12923 7.26172 6.97364 7.0912 6.97364 6.88086C6.97364 6.67052 7.12923 6.5 7.32115 6.5C7.51307 6.5 7.66866 6.67052 7.66866 6.88086C7.66866 7.0912 7.51307 7.26172 7.32115 7.26172ZM8.7112 7.26172C8.51928 7.26172 8.36369 7.0912 8.36369 6.88086C8.36369 6.67052 8.51928 6.5 8.7112 6.5C8.90312 6.5 9.05871 6.67052 9.05871 6.88086C9.05871 7.0912 8.90312 7.26172 8.7112 7.26172Z" fill="#34A853"/>
</g>
<defs>
<clipPath id="clip0_1_15443">
<rect width="11.8618" height="13" fill="white"/>
</clipPath>
</defs>
</svg>
