<svg width="20" height="20" viewBox="0 0 20 20" fill="none" xmlns="http://www.w3.org/2000/svg">
<path d="M6.66732 12.0837C7.12756 12.0837 7.50065 11.7106 7.50065 11.2503C7.50065 10.7901 7.12756 10.417 6.66732 10.417C6.20708 10.417 5.83398 10.7901 5.83398 11.2503C5.83398 11.7106 6.20708 12.0837 6.66732 12.0837Z" fill="#838383"/>
<path d="M6.66732 15.4167C7.12756 15.4167 7.50065 15.0436 7.50065 14.5833C7.50065 14.1231 7.12756 13.75 6.66732 13.75C6.20708 13.75 5.83398 14.1231 5.83398 14.5833C5.83398 15.0436 6.20708 15.4167 6.66732 15.4167Z" fill="#838383"/>
<path d="M10.0003 12.0837C10.4606 12.0837 10.8337 11.7106 10.8337 11.2503C10.8337 10.7901 10.4606 10.417 10.0003 10.417C9.54009 10.417 9.16699 10.7901 9.16699 11.2503C9.16699 11.7106 9.54009 12.0837 10.0003 12.0837Z" fill="#838383"/>
<path d="M10.0003 15.4167C10.4606 15.4167 10.8337 15.0436 10.8337 14.5833C10.8337 14.1231 10.4606 13.75 10.0003 13.75C9.54009 13.75 9.16699 14.1231 9.16699 14.5833C9.16699 15.0436 9.54009 15.4167 10.0003 15.4167Z" fill="#838383"/>
<path d="M13.3333 12.0837C13.7936 12.0837 14.1667 11.7106 14.1667 11.2503C14.1667 10.7901 13.7936 10.417 13.3333 10.417C12.8731 10.417 12.5 10.7901 12.5 11.2503C12.5 11.7106 12.8731 12.0837 13.3333 12.0837Z" fill="#838383"/>
<path d="M13.3333 15.4167C13.7936 15.4167 14.1667 15.0436 14.1667 14.5833C14.1667 14.1231 13.7936 13.75 13.3333 13.75C12.8731 13.75 12.5 14.1231 12.5 14.5833C12.5 15.0436 12.8731 15.4167 13.3333 15.4167Z" fill="#838383"/>
<path fill-rule="evenodd" clip-rule="evenodd" d="M18.9587 5.41699V16.2503C18.9587 17.0795 18.6295 17.8737 18.0437 18.4603C17.457 19.0462 16.6628 19.3753 15.8337 19.3753H4.16699C3.33783 19.3753 2.54366 19.0462 1.95699 18.4603C1.37116 17.8737 1.04199 17.0795 1.04199 16.2503V5.41699C1.04199 4.58783 1.37116 3.79366 1.95699 3.20699C2.54366 2.62116 3.33783 2.29199 4.16699 2.29199H15.8337C16.6628 2.29199 17.457 2.62116 18.0437 3.20699C18.6295 3.79366 18.9587 4.58783 18.9587 5.41699ZM17.7087 5.41699C17.7087 4.91949 17.5112 4.44283 17.1595 4.09116C16.8078 3.73949 16.3312 3.54199 15.8337 3.54199H4.16699C3.66949 3.54199 3.19283 3.73949 2.84116 4.09116C2.48949 4.44283 2.29199 4.91949 2.29199 5.41699V16.2503C2.29199 16.7478 2.48949 17.2245 2.84116 17.5762C3.19283 17.9278 3.66949 18.1253 4.16699 18.1253H15.8337C16.3312 18.1253 16.8078 17.9278 17.1595 17.5762C17.5112 17.2245 17.7087 16.7478 17.7087 16.2503V5.41699Z" fill="#838383"/>
<path fill-rule="evenodd" clip-rule="evenodd" d="M18.3337 6.875C18.6787 6.875 18.9587 7.155 18.9587 7.5C18.9587 7.845 18.6787 8.125 18.3337 8.125H1.66699C1.32199 8.125 1.04199 7.845 1.04199 7.5C1.04199 7.155 1.32199 6.875 1.66699 6.875H18.3337Z" fill="#838383"/>
<path fill-rule="evenodd" clip-rule="evenodd" d="M12.709 1.25C12.709 0.905 12.989 0.625 13.334 0.625C13.679 0.625 13.959 0.905 13.959 1.25V4.58333C13.959 4.92833 13.679 5.20833 13.334 5.20833C12.989 5.20833 12.709 4.92833 12.709 4.58333V1.25Z" fill="#838383"/>
<path fill-rule="evenodd" clip-rule="evenodd" d="M6.04199 1.25C6.04199 0.905 6.32199 0.625 6.66699 0.625C7.01199 0.625 7.29199 0.905 7.29199 1.25V4.58333C7.29199 4.92833 7.01199 5.20833 6.66699 5.20833C6.32199 5.20833 6.04199 4.92833 6.04199 4.58333V1.25Z" fill="#838383"/>
</svg>
