<svg width="11" height="11" viewBox="0 0 11 11" fill="none" xmlns="http://www.w3.org/2000/svg">
<g clip-path="url(#clip0_1_15434)">
<path d="M9.23151 7.22024C8.61701 7.22024 8.01365 7.11491 7.44189 6.90783C7.16172 6.8031 6.81731 6.89918 6.64631 7.09165L5.51777 8.02533C4.20897 7.25966 3.40278 6.37639 2.71369 4.95278L3.54056 3.74816C3.75538 3.51304 3.83244 3.16958 3.74012 2.84731C3.55036 2.21739 3.45396 1.55644 3.45396 0.882693C3.45399 0.395971 3.09269 0 2.64861 0H0.80538C0.361301 0 0 0.395971 0 0.882664C0 6.46144 4.1412 11 9.23151 11C9.67559 11 10.0369 10.604 10.0369 10.1173V8.10288C10.0369 7.61621 9.67556 7.22024 9.23151 7.22024Z" fill="#34A853"/>
</g>
<defs>
<clipPath id="clip0_1_15434">
<rect width="10.0369" height="11" fill="white"/>
</clipPath>
</defs>
</svg>
