<svg width="31" height="31" viewBox="0 0 31 31" fill="none" xmlns="http://www.w3.org/2000/svg">
<path d="M15.6538 11.6709H8.02869C4.5489 11.6709 1.72803 14.4918 1.72803 17.9716C1.72803 20.4887 3.20433 22.6611 5.33813 23.6703C6.19501 24.0757 6.74467 24.9352 6.74467 25.8831V27.2348C6.74467 27.7487 7.40879 27.9535 7.69804 27.529L9.19067 25.3398C9.64619 24.6719 10.4023 24.2722 11.2107 24.2722H15.6538C19.1336 24.2722 21.9545 21.4513 21.9545 17.9716C21.9542 14.4918 19.1334 11.6709 15.6538 11.6709Z" fill="#F8FAFD"/>
<path d="M7.74582 23.6703C5.61201 22.6611 4.13571 20.4887 4.13571 17.9716C4.13571 14.4918 6.95658 11.6709 10.4364 11.6709H8.02869C4.5489 11.6709 1.72803 14.4918 1.72803 17.9716C1.72803 20.4887 3.20409 22.6611 5.3379 23.6703C6.19501 24.0757 6.74443 24.9352 6.74443 25.8831V27.2348C6.74443 27.7487 7.40855 27.9535 7.69804 27.529L9.11262 25.4541C8.97449 24.6821 8.47096 24.0132 7.74582 23.6703Z" fill="#DDDDDD"/>
<path d="M8.73917 18.0928C8.73917 18.7352 8.21861 19.256 7.57625 19.256C6.93388 19.256 6.41309 18.7352 6.41309 18.0928C6.41309 17.4505 6.93388 16.9297 7.57625 16.9297C8.21861 16.9297 8.73917 17.4505 8.73917 18.0928Z" fill="#814BA2"/>
<path d="M13.0045 18.0928C13.0045 18.7352 12.4837 19.256 11.8414 19.256C11.199 19.256 10.6782 18.7352 10.6782 18.0928C10.6782 17.4505 11.199 16.9297 11.8414 16.9297C12.4837 16.9297 13.0045 17.4505 13.0045 18.0928Z" fill="#814BA2"/>
<path d="M17.2692 18.0928C17.2692 18.7352 16.7484 19.256 16.106 19.256C15.4637 19.256 14.9429 18.7352 14.9429 18.0928C14.9429 17.4505 15.4637 16.9297 16.106 16.9297C16.7484 16.9297 17.2692 17.4505 17.2692 18.0928Z" fill="#814BA2"/>
<path d="M15.2753 0H22.9002C26.3799 0 29.2008 2.82087 29.2008 6.30066C29.2008 8.81785 27.7247 10.99 25.5909 11.9994C24.7338 12.4048 24.1844 13.2643 24.1844 14.2122V15.5639C24.1844 16.0776 23.5203 16.2826 23.2308 15.8581L21.7382 13.6687C21.2829 13.0008 20.5268 12.6013 19.7181 12.6013H15.2753C11.7955 12.6013 8.97461 9.78045 8.97461 6.30066C8.97461 2.82087 11.7955 0 15.2753 0Z" fill="#F84E4E"/>
<path d="M22.3112 11.7987H17.8681C14.3884 11.7987 11.5675 8.97761 11.5675 5.49806C11.5675 3.20414 12.7936 1.19663 14.626 0.0947266C11.4514 0.419693 8.97461 3.10173 8.97461 6.36227C8.97461 9.84206 11.7955 12.6629 15.2753 12.6629H19.7184C20.5268 12.6629 21.2829 13.0626 21.7382 13.7305L23.2308 15.9197C23.5203 16.3442 24.1844 16.1394 24.1844 15.6255V14.2738C24.1844 13.8533 24.293 13.4503 24.4883 13.0965L24.331 12.8663C23.8758 12.1982 23.1196 11.7987 22.3112 11.7987Z" fill="#D41000"/>
<path d="M24.5158 6.42097C24.5158 7.06334 23.995 7.58414 23.3526 7.58414C22.7103 7.58414 22.1895 7.06334 22.1895 6.42097C22.1895 5.77861 22.7103 5.25781 23.3526 5.25781C23.995 5.25781 24.5158 5.77861 24.5158 6.42097Z" fill="#F8FAFD"/>
<path d="M20.2509 6.42097C20.2509 7.06334 19.7303 7.58414 19.088 7.58414C18.4456 7.58414 17.9248 7.06334 17.9248 6.42097C17.9248 5.77861 18.4456 5.25781 19.088 5.25781C19.7303 5.25781 20.2509 5.77861 20.2509 6.42097Z" fill="#F8FAFD"/>
<path d="M15.986 6.42097C15.986 7.06334 15.4652 7.58414 14.8228 7.58414C14.1805 7.58414 13.6597 7.06334 13.6597 6.42097C13.6597 5.77861 14.1805 5.25781 14.8228 5.25781C15.4652 5.25781 15.986 5.77861 15.986 6.42097Z" fill="#F8FAFD"/>
</svg>
