<svg width="27" height="23" viewBox="0 0 27 23" fill="none" xmlns="http://www.w3.org/2000/svg">
<path d="M22.5001 5.95215V8.43793C22.5001 12.0567 19.5563 15.0004 15.9376 15.0004H4.77197C5.21916 17.6596 7.52635 19.6879 10.3126 19.6879H23.4376L26.2501 22.5004V11.2504C26.2501 8.80215 24.6835 6.72512 22.5001 5.95215Z" fill="#FAB400"/>
<path d="M6.64697 15H4.77197C5.21916 17.6592 7.52635 19.6875 10.3126 19.6875H12.1876C9.40135 19.6875 7.09416 17.6592 6.64697 15Z" fill="#DC9600"/>
<path d="M5.625 0C2.51859 0 0 2.51859 0 5.625V16.875L2.8125 14.0625H15.9375C19.0439 14.0625 21.5625 11.5439 21.5625 8.4375V5.625C21.5625 2.51859 19.0439 0 15.9375 0H5.625Z" fill="#FA6450"/>
<path d="M1.875 5.625C1.875 2.51859 4.39359 0 7.5 0H5.625C2.51859 0 0 2.51859 0 5.625V16.875L1.875 15V5.625Z" fill="#DC4632"/>
<path d="M8.4375 8.4375C7.91953 8.4375 7.5 8.01797 7.5 7.5C7.5 6.98203 7.91953 6.5625 8.4375 6.5625C8.95547 6.5625 9.375 6.98203 9.375 7.5C9.375 8.01797 8.95547 8.4375 8.4375 8.4375Z" fill="#F0F0F0"/>
<path d="M11.25 8.4375C10.732 8.4375 10.3125 8.01797 10.3125 7.5C10.3125 6.98203 10.732 6.5625 11.25 6.5625C11.768 6.5625 12.1875 6.98203 12.1875 7.5C12.1875 8.01797 11.768 8.4375 11.25 8.4375Z" fill="#F0F0F0"/>
<path d="M14.0625 8.4375C13.5445 8.4375 13.125 8.01797 13.125 7.5C13.125 6.98203 13.5445 6.5625 14.0625 6.5625C14.5805 6.5625 15 6.98203 15 7.5C15 8.01797 14.5805 8.4375 14.0625 8.4375Z" fill="#F0F0F0"/>
</svg>
