<svg width="24" height="24" viewBox="0 0 24 24" fill="none" xmlns="http://www.w3.org/2000/svg">
<g clip-path="url(#clip0_1_12560)">
<path d="M21.2002 16H22.4002C22.7185 16 23.0237 16.1264 23.2487 16.3515C23.4738 16.5765 23.6002 16.8817 23.6002 17.2V19.6C23.6002 19.9183 23.4738 20.2235 23.2487 20.4485C23.0237 20.6736 22.7185 20.8 22.4002 20.8H21.2002V16Z" fill="#219CF7"/>
<path d="M21.2002 12.7998H22.4002C22.7185 12.7998 23.0237 12.9262 23.2487 13.1513C23.4738 13.3763 23.6002 13.6815 23.6002 13.9998V16.3998C23.6002 16.7181 23.4738 17.0233 23.2487 17.2483C23.0237 17.4734 22.7185 17.5998 22.4002 17.5998H21.2002V12.7998Z" fill="#47D17F"/>
<path d="M21.2002 9.59961H22.4002C22.7185 9.59961 23.0237 9.72604 23.2487 9.95108C23.4738 10.1761 23.6002 10.4813 23.6002 10.7996V13.1996C23.6002 13.5179 23.4738 13.8231 23.2487 14.0481C23.0237 14.2732 22.7185 14.3996 22.4002 14.3996H21.2002V9.59961Z" fill="#EA3D53"/>
<path d="M21.2002 6.40039H22.4002C22.7185 6.40039 23.0237 6.52682 23.2487 6.75186C23.4738 6.97691 23.6002 7.28213 23.6002 7.60039V10.0004C23.6002 10.3187 23.4738 10.6239 23.2487 10.8489C23.0237 11.074 22.7185 11.2004 22.4002 11.2004H21.2002V6.40039Z" fill="#EDED5A"/>
<path d="M21.2002 3.2002H22.4002C22.7185 3.2002 23.0237 3.32662 23.2487 3.55167C23.4738 3.77671 23.6002 4.08194 23.6002 4.4002V6.8002C23.6002 7.11846 23.4738 7.42368 23.2487 7.64872C23.0237 7.87377 22.7185 8.0002 22.4002 8.0002H21.2002V3.2002Z" fill="#219CF7"/>
<path d="M7.9999 0.400391V23.6004H3.1999C2.98792 23.5998 2.78481 23.5153 2.63492 23.3654C2.48502 23.2155 2.40054 23.0124 2.3999 22.8004V1.20039C2.40054 0.988412 2.48502 0.785297 2.63492 0.635405C2.78481 0.485513 2.98792 0.401024 3.1999 0.400391H7.9999Z" fill="#219CF7"/>
<path d="M21.6 2.80039V21.2004C21.6 21.8369 21.3471 22.4474 20.8971 22.8974C20.447 23.3475 19.8365 23.6004 19.2 23.6004H8V0.400391H19.2C19.8365 0.400391 20.447 0.653247 20.8971 1.10333C21.3471 1.55342 21.6 2.16387 21.6 2.80039Z" fill="#E2E3ED"/>
<path d="M3.41602 5.99961C3.59212 6.30464 3.86396 6.54303 4.18936 6.67782C4.51477 6.8126 4.87555 6.83625 5.21577 6.74509C5.55598 6.65393 5.85661 6.45306 6.07102 6.17363C6.28544 5.8942 6.40166 5.55182 6.40166 5.19961C6.40166 4.8474 6.28544 4.50502 6.07102 4.22559C5.85661 3.94616 5.55598 3.74529 5.21577 3.65413C4.87555 3.56297 4.51477 3.58662 4.18936 3.7214C3.86396 3.85619 3.59212 4.09458 3.41602 4.39961V5.99961Z" fill="#237EB5"/>
<path d="M3.41602 12.8004C3.59212 13.1054 3.86396 13.3438 4.18936 13.4786C4.51477 13.6134 4.87555 13.637 5.21577 13.5459C5.55598 13.4547 5.85661 13.2538 6.07102 12.9744C6.28544 12.695 6.40166 12.3526 6.40166 12.0004C6.40166 11.6482 6.28544 11.3058 6.07102 11.0264C5.85661 10.7469 5.55598 10.5461 5.21577 10.4549C4.87555 10.3638 4.51477 10.3874 4.18936 10.5222C3.86396 10.657 3.59212 10.8954 3.41602 11.2004V12.8004Z" fill="#237EB5"/>
<path d="M3.41602 19.6002C3.59212 19.9052 3.86396 20.1436 4.18936 20.2784C4.51477 20.4132 4.87555 20.4368 5.21577 20.3457C5.55598 20.2545 5.85661 20.0536 6.07102 19.7742C6.28544 19.4948 6.40166 19.1524 6.40166 18.8002C6.40166 18.448 6.28544 18.1056 6.07102 17.8262C5.85661 17.5467 5.55598 17.3459 5.21577 17.2547C4.87555 17.1636 4.51477 17.1872 4.18936 17.322C3.86396 17.4568 3.59212 17.6952 3.41602 18.0002V19.6002Z" fill="#237EB5"/>
<path d="M16.8721 10.8359C17.675 11.2536 18.3514 11.8785 18.8312 12.646C19.3109 13.4134 19.5764 14.2952 19.6001 15.1999V15.2039C19.6037 15.5256 19.5224 15.8425 19.3644 16.1227C19.2063 16.403 18.9772 16.6365 18.7001 16.7999C18.0001 17.1999 16.8001 17.5999 14.8001 17.5999C12.8001 17.5999 11.6001 17.1999 10.9001 16.7999C10.623 16.6365 10.3939 16.403 10.2359 16.1227C10.0779 15.8425 9.99654 15.5256 10.0001 15.2039V15.1999C10.0238 14.2952 10.2893 13.4134 10.7691 12.646C11.2488 11.8785 11.9252 11.2536 12.7281 10.8359H16.8721Z" fill="#177DE2"/>
<path d="M3.9999 4.40039H1.1999C0.758075 4.40039 0.399902 4.75856 0.399902 5.20039C0.399902 5.64222 0.758075 6.00039 1.1999 6.00039H3.9999C4.44173 6.00039 4.7999 5.64222 4.7999 5.20039C4.7999 4.75856 4.44173 4.40039 3.9999 4.40039Z" fill="#E2E3ED"/>
<path d="M3.9999 11.2002H1.1999C0.758075 11.2002 0.399902 11.5584 0.399902 12.0002C0.399902 12.442 0.758075 12.8002 1.1999 12.8002H3.9999C4.44173 12.8002 4.7999 12.442 4.7999 12.0002C4.7999 11.5584 4.44173 11.2002 3.9999 11.2002Z" fill="#E2E3ED"/>
<path d="M3.9999 18H1.1999C0.758075 18 0.399902 18.3582 0.399902 18.8C0.399902 19.2418 0.758075 19.6 1.1999 19.6H3.9999C4.44173 19.6 4.7999 19.2418 4.7999 18.8C4.7999 18.3582 4.44173 18 3.9999 18Z" fill="#E2E3ED"/>
<path d="M14.8001 11.6002C16.5674 11.6002 18.0001 10.1675 18.0001 8.4002C18.0001 6.63288 16.5674 5.2002 14.8001 5.2002C13.0328 5.2002 11.6001 6.63288 11.6001 8.4002C11.6001 10.1675 13.0328 11.6002 14.8001 11.6002Z" fill="#219CF7"/>
</g>
<defs>
<clipPath id="clip0_1_12560">
<rect width="24" height="24" fill="white"/>
</clipPath>
</defs>
</svg>
