<svg width="13" height="13" viewBox="0 0 13 13" fill="none" xmlns="http://www.w3.org/2000/svg">
<path d="M8.11328 4.70996C7.94876 4.70996 7.81543 4.84625 7.81543 5.01441V10.7685C7.81543 10.9365 7.94876 11.0729 8.11328 11.0729C8.27779 11.0729 8.41113 10.9365 8.41113 10.7685V5.01441C8.41113 4.84625 8.27779 4.70996 8.11328 4.70996Z" fill="#D41000"/>
<path d="M4.59863 4.70996C4.43411 4.70996 4.30078 4.84625 4.30078 5.01441V10.7685C4.30078 10.9365 4.43411 11.0729 4.59863 11.0729C4.76314 11.0729 4.89648 10.9365 4.89648 10.7685V5.01441C4.89648 4.84625 4.76314 4.70996 4.59863 4.70996Z" fill="#D41000"/>
<path d="M2.03734 3.87023V11.3712C2.03734 11.8146 2.19639 12.2309 2.47423 12.5297C2.75078 12.8292 3.13566 12.9993 3.53845 13H9.17383C9.57674 12.9993 9.96162 12.8292 10.2381 12.5297C10.5159 12.2309 10.6749 11.8146 10.6749 11.3712V3.87023C11.2272 3.72038 11.5851 3.17499 11.5112 2.5957C11.4372 2.01654 10.9545 1.58329 10.383 1.58317H8.85807V1.20261C8.85981 0.882584 8.73602 0.575282 8.51438 0.349205C8.29274 0.123247 7.99163 -0.00257635 7.67854 4.00021e-05H5.03374C4.72065 -0.00257635 4.41955 0.123247 4.19791 0.349205C3.97627 0.575282 3.85247 0.882584 3.85422 1.20261V1.58317H2.32926C1.75776 1.58329 1.27504 2.01654 1.20104 2.5957C1.12716 3.17499 1.48504 3.72038 2.03734 3.87023ZM9.17383 12.3911H3.53845C3.0292 12.3911 2.63304 11.9439 2.63304 11.3712V3.89698H10.0792V11.3712C10.0792 11.9439 9.68308 12.3911 9.17383 12.3911ZM4.44991 1.20261C4.44794 1.04409 4.5089 0.891504 4.61897 0.779595C4.72891 0.667687 4.87854 0.606202 5.03374 0.608937H7.67854C7.83375 0.606202 7.98337 0.667687 8.09332 0.779595C8.20338 0.891385 8.26435 1.04409 8.26237 1.20261V1.58317H4.44991V1.20261ZM2.32926 2.19207H10.383C10.6791 2.19207 10.9192 2.43741 10.9192 2.74008C10.9192 3.04274 10.6791 3.28809 10.383 3.28809H2.32926C2.03316 3.28809 1.79313 3.04274 1.79313 2.74008C1.79313 2.43741 2.03316 2.19207 2.32926 2.19207Z" fill="#D41000"/>
<path d="M6.35644 4.70996C6.19193 4.70996 6.05859 4.84625 6.05859 5.01441V10.7685C6.05859 10.9365 6.19193 11.0729 6.35644 11.0729C6.52096 11.0729 6.65429 10.9365 6.65429 10.7685V5.01441C6.65429 4.84625 6.52096 4.70996 6.35644 4.70996Z" fill="#D41000"/>
</svg>
