<svg width="24" height="24" viewBox="0 0 24 24" fill="none" xmlns="http://www.w3.org/2000/svg">
<g clip-path="url(#clip0_1_15677)">
<path d="M11.9998 13.2898C11.9998 11.3181 10.4014 9.71973 8.42969 9.71973L7.96094 13.0276L8.42969 20.9545H11.9998V13.2898Z" fill="#24B3B3"/>
<path d="M4.85986 13.2898V20.9545H8.42996V9.71973C6.45825 9.71973 4.85986 11.3181 4.85986 13.2898Z" fill="#2EE6A8"/>
<path d="M19.1404 13.2898C19.1404 11.3181 17.542 9.71973 15.5703 9.71973L15.1016 13.0276L15.5703 20.9545H19.1404V13.2898Z" fill="#E62E6B"/>
<path d="M12 13.2898V20.9545H15.5701V9.71973C13.5984 9.71973 12 11.3181 12 13.2898Z" fill="#FF6666"/>
<path d="M11.2969 0H12.7031V2.10938H11.2969V0Z" fill="#FFB655"/>
<path d="M11.2969 0H12.7031V2.10938H11.2969V0Z" fill="#FFB655"/>
<path d="M7.62256 0.804688L8.9599 0.370156L9.6117 2.37617L8.27436 2.8107L7.62256 0.804688Z" fill="#FFDA44"/>
<path d="M7.62256 0.804688L8.9599 0.370156L9.6117 2.37617L8.27436 2.8107L7.62256 0.804688Z" fill="#FFDA44"/>
<path d="M4.37793 2.7041L5.51559 1.87723L6.7559 3.58371L5.61824 4.41059L4.37793 2.7041Z" fill="#FFDA44"/>
<path d="M4.37793 2.7041L5.51559 1.87723L6.7559 3.58371L5.61824 4.41059L4.37793 2.7041Z" fill="#FFDA44"/>
<path d="M1.87891 5.5166L2.70578 4.37895L4.41227 5.61926L3.58539 6.75691L1.87891 5.5166Z" fill="#FFDA44"/>
<path d="M1.87891 5.5166L2.70578 4.37895L4.41227 5.61926L3.58539 6.75691L1.87891 5.5166Z" fill="#FFDA44"/>
<path d="M0.369629 8.96094L0.80416 7.62359L2.81018 8.27539L2.37564 9.61273L0.369629 8.96094Z" fill="#FFDA44"/>
<path d="M0.369629 8.96094L0.80416 7.62359L2.81018 8.27539L2.37564 9.61273L0.369629 8.96094Z" fill="#FFDA44"/>
<path d="M0 11.2969H2.10938V12.7031H0V11.2969Z" fill="#FFDA44"/>
<path d="M0 11.2969H2.10938V12.7031H0V11.2969Z" fill="#FFDA44"/>
<path d="M21.8906 11.2969H24V12.7031H21.8906V11.2969Z" fill="#FFB655"/>
<path d="M21.8906 11.2969H24V12.7031H21.8906V11.2969Z" fill="#FFB655"/>
<path d="M21.188 8.27539L23.194 7.62359L23.6285 8.96094L21.6225 9.61273L21.188 8.27539Z" fill="#FFB655"/>
<path d="M21.188 8.27539L23.194 7.62359L23.6285 8.96094L21.6225 9.61273L21.188 8.27539Z" fill="#FFB655"/>
<path d="M19.5889 5.61328L21.2954 4.37297L22.1222 5.51063L20.4157 6.75094L19.5889 5.61328Z" fill="#FFB655"/>
<path d="M19.5889 5.61328L21.2954 4.37297L22.1222 5.51063L20.4157 6.75094L19.5889 5.61328Z" fill="#FFB655"/>
<path d="M17.248 3.58594L18.4884 1.87945L19.626 2.70633L18.3857 4.41281L17.248 3.58594Z" fill="#FFB655"/>
<path d="M17.248 3.58594L18.4884 1.87945L19.626 2.70633L18.3857 4.41281L17.248 3.58594Z" fill="#FFB655"/>
<path d="M14.3872 2.37695L15.039 0.370938L16.3763 0.805469L15.7246 2.81148L14.3872 2.37695Z" fill="#FFB655"/>
<path d="M14.3872 2.37695L15.039 0.370938L16.3763 0.805469L15.7246 2.81148L14.3872 2.37695Z" fill="#FFB655"/>
<path d="M10.477 7.67231C10.477 6.54159 9.56041 5.625 8.42969 5.625L7.96094 7.67231L8.42969 9.71962C9.56036 9.71962 10.477 8.80298 10.477 7.67231Z" fill="#DBAD5C"/>
<path d="M6.38281 7.67231C6.38281 8.80303 7.29941 9.71962 8.43012 9.71962V5.625C7.29941 5.625 6.38281 6.54159 6.38281 7.67231Z" fill="#E7C994"/>
<path d="M17.6176 7.67231C17.6176 6.54159 16.701 5.625 15.5703 5.625L15.1016 7.67231L15.5703 9.71962C16.701 9.71962 17.6176 8.80298 17.6176 7.67231Z" fill="#8C574D"/>
<path d="M13.5229 7.67231C13.5229 8.80303 14.4395 9.71962 15.5703 9.71962V5.625C14.4396 5.625 13.5229 6.54159 13.5229 7.67231Z" fill="#A6756B"/>
<path d="M21.1874 15.3374C21.1874 14.2066 20.2709 13.29 19.1401 13.29L18.6714 15.3374L19.1401 17.3847C20.2709 17.3846 21.1874 16.468 21.1874 15.3374Z" fill="#DBAD5C"/>
<path d="M17.0928 15.3374C17.0928 16.4681 18.0094 17.3847 19.1401 17.3847V13.29C18.0094 13.29 17.0928 14.2066 17.0928 15.3374Z" fill="#E7C994"/>
<path d="M22.7102 20.9549C22.7102 18.9832 21.1118 17.3848 19.1401 17.3848L18.6714 20.6926L19.1401 24.0004H22.7102V20.9549Z" fill="#6A4DFF"/>
<path d="M15.5703 20.9549L15.1016 22.5942L15.5703 24.0005H19.1404V17.3848C17.1687 17.3848 15.5703 18.9832 15.5703 20.9549Z" fill="#6680FF"/>
<path d="M14.0473 15.3374C14.0473 14.2066 13.1307 13.29 12 13.29L11.5312 15.3374L12 17.3847C13.1307 17.3846 14.0473 16.468 14.0473 15.3374Z" fill="#FFCDBE"/>
<path d="M9.95264 15.3374C9.95264 16.4681 10.8692 17.3847 11.9999 17.3847V13.29C10.8692 13.29 9.95264 14.2066 9.95264 15.3374Z" fill="#FFDECF"/>
<path d="M15.5701 20.9549C15.5701 18.9832 13.9717 17.3848 12 17.3848L11.5312 20.6926L12 24.0004H15.5701V20.9549Z" fill="#404A80"/>
<path d="M8.42969 20.9549L7.96094 22.5942L8.42969 24.0005H11.9998V17.3848C10.0281 17.3848 8.42969 18.9832 8.42969 20.9549Z" fill="#5C6699"/>
<path d="M6.90718 15.3374C6.90718 14.2066 5.99058 13.29 4.85986 13.29L4.39111 15.3374L4.85986 17.3847C5.99054 17.3846 6.90718 16.468 6.90718 15.3374Z" fill="#8C574D"/>
<path d="M2.8125 15.3374C2.8125 16.4681 3.72909 17.3847 4.85981 17.3847V13.29C3.72909 13.29 2.8125 14.2066 2.8125 15.3374Z" fill="#A6756B"/>
<path d="M8.42996 20.9549C8.42996 18.9832 6.83157 17.3848 4.85986 17.3848L4.39111 20.6926L4.85986 24.0004H8.42996V20.9549Z" fill="#FFB655"/>
<path d="M1.28955 20.9549V24.0005H4.85964V17.3848C2.88794 17.3848 1.28955 18.9832 1.28955 20.9549Z" fill="#FFDA44"/>
</g>
<defs>
<clipPath id="clip0_1_15677">
<rect width="24" height="24" fill="white"/>
</clipPath>
</defs>
</svg>
