<svg width="20" height="20" viewBox="0 0 20 20" fill="none" xmlns="http://www.w3.org/2000/svg">
<path fill-rule="evenodd" clip-rule="evenodd" d="M3.70918 13.2002C4.151 13.2002 4.50918 13.5584 4.50918 14.0002V15.6002C4.50918 15.8124 4.59345 16.0158 4.74351 16.1659C4.89352 16.3159 5.097 16.4002 5.30918 16.4002H14.9092C15.1213 16.4002 15.3248 16.316 15.4748 16.1659C15.6249 16.0158 15.7092 15.8124 15.7092 15.6002V14.0002C15.7092 13.5584 16.0673 13.2002 16.5092 13.2002C16.951 13.2002 17.3092 13.5584 17.3092 14.0002V15.6002C17.3092 16.2367 17.0564 16.8472 16.6062 17.2972C16.1561 17.7473 15.5456 18.0002 14.9092 18.0002H5.30918C4.67268 18.0002 4.0622 17.7474 3.61211 17.2972C3.16204 16.8472 2.90918 16.2367 2.90918 15.6002V14.0002C2.90918 13.5584 3.26735 13.2002 3.70918 13.2002Z" fill="#34A853"/>
<path fill-rule="evenodd" clip-rule="evenodd" d="M5.54388 8.63373C5.85631 8.32131 6.36283 8.32131 6.67526 8.63373L10.1096 12.0681L13.5439 8.63373C13.8563 8.32131 14.3628 8.32131 14.6752 8.63373C14.9877 8.94613 14.9877 9.45269 14.6752 9.76509L10.6752 13.7651C10.3628 14.0775 9.85627 14.0775 9.54387 13.7651L5.54388 9.76509C5.23147 9.45269 5.23147 8.94613 5.54388 8.63373Z" fill="#34A853"/>
<path fill-rule="evenodd" clip-rule="evenodd" d="M10.1096 2.7998C10.5514 2.7998 10.9096 3.15798 10.9096 3.5998V13.1998C10.9096 13.6416 10.5514 13.9998 10.1096 13.9998C9.66773 13.9998 9.30957 13.6416 9.30957 13.1998V3.5998C9.30957 3.15798 9.66773 2.7998 10.1096 2.7998Z" fill="#34A853"/>
</svg>
