<svg width="25" height="25" viewBox="0 0 25 25" fill="none" xmlns="http://www.w3.org/2000/svg">
<path d="M20.7031 6.25V21.875C20.7031 22.7379 20.0035 23.4375 19.1406 23.4375H5.85938C4.99648 23.4375 4.29688 22.7379 4.29688 21.875V3.125C4.29688 2.26211 4.99648 1.5625 5.85938 1.5625H16.0156L20.7031 6.25Z" fill="#EEEDFF"/>
<path d="M14.8438 1.5625V4.6875C14.8438 6.19531 16.0707 7.42188 17.5781 7.42188H20.7031V6.25L16.0156 1.5625H14.8438Z" fill="#D3D3FF"/>
<path d="M5.85938 22.2652C5.64375 22.2652 5.46875 22.0898 5.46875 21.8746V1.61719C4.79609 1.79141 4.29688 2.39727 4.29688 3.12461V21.8746C4.29688 22.7375 4.99648 23.4371 5.85938 23.4371H19.1406C19.868 23.4371 20.4738 22.9379 20.648 22.2652H5.85938Z" fill="#D3D3FF"/>
<path d="M17.5781 6.25H20.7031L16.0156 1.5625V4.6875C16.0156 5.55039 16.7152 6.25 17.5781 6.25Z" fill="#C8A9F1"/>
<path d="M8.20312 17.5781L11.9477 21.3227C12.2527 21.6277 12.7473 21.6277 13.0523 21.3227L16.7969 17.5781H14.0625V14.0625C14.0625 13.6309 13.7129 13.2812 13.2812 13.2812H11.7188C11.2871 13.2812 10.9375 13.6309 10.9375 14.0625V17.5781H8.20312Z" fill="#FBE29F"/>
<path d="M11.0285 18.6795C11.6332 18.6326 12.1094 18.1275 12.1094 17.5107V13.2139H11.7188C11.2871 13.2139 10.9375 13.5635 10.9375 13.9951V17.5107H8.20312L11.9477 21.2553C12.2527 21.5604 12.7473 21.5604 13.0523 21.2553L13.3285 20.9791L11.0285 18.6795Z" fill="#FFCD71"/>
<path d="M7.03125 4.6875C7.03125 4.47187 7.20586 4.29688 7.42188 4.29688H14.4531C14.6691 4.29688 14.8438 4.47187 14.8438 4.6875C14.8438 4.90313 14.6691 5.07812 14.4531 5.07812H7.42188C7.20586 5.07812 7.03125 4.90313 7.03125 4.6875ZM17.5781 7.42188H7.42188C7.20586 7.42188 7.03125 7.59688 7.03125 7.8125C7.03125 8.02812 7.20586 8.20312 7.42188 8.20312H17.5781C17.7941 8.20312 17.9688 8.02812 17.9688 7.8125C17.9688 7.59688 17.7941 7.42188 17.5781 7.42188ZM17.5781 10.5469H7.42188C7.20586 10.5469 7.03125 10.7219 7.03125 10.9375C7.03125 11.1531 7.20586 11.3281 7.42188 11.3281H17.5781C17.7941 11.3281 17.9688 11.1531 17.9688 10.9375C17.9688 10.7219 17.7941 10.5469 17.5781 10.5469ZM21.0938 21.875C21.0938 22.952 20.2176 23.8281 19.1406 23.8281H5.85938C4.78242 23.8281 3.90625 22.952 3.90625 21.875V3.125C3.90625 2.04805 4.78242 1.17188 5.85938 1.17188H16.0156C16.1164 1.18281 16.218 1.21172 16.2922 1.28672L20.9789 5.97344C21.0453 6.0418 21.082 6.13203 21.0887 6.22617C21.1027 6.24648 21.0891 21.8512 21.0938 21.875ZM16.4062 4.6875C16.4062 5.33359 16.932 5.85938 17.5781 5.85938H19.7602L16.4062 2.50547V4.6875ZM20.3125 21.875V6.64062H17.5781C16.5012 6.64062 15.625 5.76445 15.625 4.6875V1.95312H5.85938C5.21328 1.95312 4.6875 2.47891 4.6875 3.125V21.875C4.6875 22.5211 5.21328 23.0469 5.85938 23.0469H19.1406C19.7867 23.0469 20.3125 22.5211 20.3125 21.875ZM17.1578 17.4285C17.2184 17.5746 17.1848 17.7426 17.073 17.8543L13.3285 21.5988C13.1 21.827 12.8 21.9414 12.5 21.9414C12.1996 21.9414 11.9 21.8273 11.6715 21.5992L7.92695 17.8547C7.81523 17.743 7.78164 17.575 7.84219 17.4289C7.90234 17.2828 8.04531 17.1875 8.20312 17.1875H10.5469V14.0625C10.5469 13.4164 11.0727 12.8906 11.7188 12.8906H13.2812C13.9273 12.8906 14.4531 13.4164 14.4531 14.0625V17.1875H16.7969C16.9547 17.1875 17.0977 17.2828 17.1578 17.4285ZM15.8539 17.9688H14.0625C13.8465 17.9688 13.6719 17.7938 13.6719 17.5781V14.0625C13.6719 13.8473 13.4969 13.6719 13.2812 13.6719H11.7188C11.5031 13.6719 11.3281 13.8473 11.3281 14.0625V17.5781C11.3281 17.7938 11.1535 17.9688 10.9375 17.9688H9.14609L12.2238 21.0465C12.3766 21.1988 12.6234 21.1988 12.7762 21.0465L15.8539 17.9688Z" fill="black"/>
</svg>
