<svg width="17" height="16" viewBox="0 0 17 16" fill="none" xmlns="http://www.w3.org/2000/svg">
<g clip-path="url(#clip0_1_9619)">
<path d="M11.2337 6.23332C10.9748 6.23332 10.8354 5.93338 11.0246 5.75529L13.6438 3.25266C13.9227 2.99021 14.3509 3.38388 14.0721 3.64633L11.4528 6.14896C11.3931 6.2052 11.3134 6.23332 11.2337 6.23332ZM13.0363 2.23098L14.4704 0.862497C15.0082 0.356346 15.8946 0.337599 16.4423 0.853124L16.5817 0.984348C17.1295 1.4905 17.1394 2.32471 16.5917 2.84024L15.8248 3.57134L13.0463 6.22395V13.7787C13.0463 14.7442 12.2097 15.5221 11.1939 15.5221H1.85237C0.826596 15.5221 0 14.7442 0 13.7787V2.28722C0 1.33116 0.826596 0.553182 1.85237 0.553182H11.2337C12.2296 0.553182 12.9865 1.33116 13.0363 2.23098ZM7.66842 9.63578C7.4792 9.63578 7.32982 9.45769 7.37961 9.27023L8.09666 6.95506L12.4487 2.80274V2.28722C12.4487 1.64047 11.8811 1.11557 11.1939 1.11557H1.85237C1.15524 1.11557 0.59754 1.64047 0.59754 2.28722V13.7787C0.59754 14.4255 1.15524 14.9597 1.85237 14.9597H11.1939C11.8811 14.9597 12.4487 14.4255 12.4487 13.7787V6.79571L10.208 8.91405L7.66842 9.63578ZM10.1183 7.30186C9.84944 7.30186 9.71998 7.00192 9.9092 6.82383L10.3773 6.37392C10.6561 6.11147 11.0744 6.50515 10.8055 6.76759L10.3275 7.21751C10.2677 7.27374 10.198 7.30186 10.1183 7.30186ZM9.41125 3.76818H2.3802C1.98184 3.76818 1.98184 3.20579 2.3802 3.20579H9.41125C9.79965 3.20579 9.79965 3.76818 9.41125 3.76818ZM7.60867 6.06461H2.3802C1.98184 6.06461 1.98184 5.50222 2.3802 5.50222H7.60867C7.99707 5.50222 7.99707 6.06461 7.60867 6.06461ZM6.28412 8.36103H2.3802C1.98184 8.36103 1.98184 7.79864 2.3802 7.79864H6.28412C6.67252 7.79864 6.67252 8.36103 6.28412 8.36103ZM7.45929 10.6481H2.3802C1.98184 10.6481 1.98184 10.0857 2.3802 10.0857H7.45929C7.85765 10.0857 7.85765 10.6481 7.45929 10.6481ZM10.676 12.9445H2.3802C1.98184 12.9445 1.98184 12.3821 2.3802 12.3821H10.676C11.0744 12.3821 11.0744 12.9445 10.676 12.9445ZM8.50498 7.62993L8.10662 8.9328L9.49092 8.53912L8.50498 7.62993ZM8.78383 7.09565L10.0486 8.27667L15.1974 3.37451L13.9227 2.19349L8.78383 7.09565ZM14.3409 1.79044L15.6157 2.97146L16.1734 2.44656C16.4821 2.14662 16.4722 1.67796 16.1634 1.38739C15.795 1.04059 15.3169 0.862497 14.8987 1.26554L14.3409 1.79044Z" fill="#D41000"/>
</g>
<defs>
<clipPath id="clip0_1_9619">
<rect width="17" height="16" fill="white"/>
</clipPath>
</defs>
</svg>
