<svg width="23" height="23" viewBox="0 0 23 23" fill="none" xmlns="http://www.w3.org/2000/svg">
<g clip-path="url(#clip0_1_12469)">
<path d="M22.1612 8.4127L21.86 3.79356C21.7208 1.65964 19.9494 0 17.8109 0C15.6725 0 13.9011 1.65964 13.7619 3.79356L13.4606 8.4127C13.4325 8.84404 13.7747 9.20934 14.207 9.20934H21.4148C21.8471 9.20934 22.1894 8.84404 22.1612 8.4127Z" fill="#7A6D79"/>
<path d="M22.1616 8.4127L21.8603 3.79356C21.7211 1.65964 19.9497 0 17.8113 0C17.5654 0 17.3246 0.0229102 17.0903 0.065002C18.8934 0.388934 20.2952 1.905 20.4184 3.79352L20.7197 8.41265C20.7478 8.84399 20.4056 9.2093 19.9733 9.2093H21.4152C21.8475 9.20934 22.1897 8.84404 22.1616 8.4127Z" fill="#685E68"/>
<path d="M21.1304 11.0645H14.4918C13.3272 12.1362 12.6221 13.667 12.6221 15.3239C12.6221 15.6735 12.9054 15.9569 13.255 15.9569H22.3672C22.7167 15.9569 23.0001 15.6735 23.0001 15.3239C23.0001 13.667 22.295 12.1362 21.1304 11.0645Z" fill="#FD8087"/>
<path d="M21.1305 11.0645H19.915C21.0796 12.1362 21.7847 13.667 21.7847 15.3239C21.7847 15.6735 21.5014 15.9569 21.1518 15.9569H22.3672C22.7168 15.9569 23.0002 15.6735 23.0002 15.3239C23.0002 13.667 22.295 12.1362 21.1305 11.0645Z" fill="#FE646F"/>
<path d="M19.8349 10.165L19.8346 10.1654H17.811V11.8556L18.5968 12.6413C18.9122 12.9568 19.4062 13.0048 19.7777 12.7578C20.3848 12.354 20.8635 11.7665 21.1304 11.0648C20.7457 10.7108 20.3109 10.4069 19.8349 10.165Z" fill="#EAF6FF"/>
<path d="M15.7875 10.1655L15.7873 10.165C15.3112 10.4069 14.8764 10.7108 14.4917 11.0649C14.7585 11.7666 15.2372 12.3542 15.8444 12.7579C16.2159 13.0049 16.7099 12.9568 17.0253 12.6414L17.811 11.8557V10.1655H15.7875Z" fill="#EAF6FF"/>
<path d="M18.9331 9.79866V8.52148H16.6892V9.79866C16.3749 9.8965 16.0739 10.0199 15.7876 10.1653C15.9611 11.1251 16.8021 11.8556 17.8111 11.8556C18.8201 11.8556 19.6612 11.1251 19.8347 10.1653C19.5483 10.0199 19.2474 9.8965 18.9331 9.79866Z" fill="#F6A96C"/>
<path d="M17.2034 9.13891L17.6832 9.09601L18.6548 8.70874L19.5655 6.88653L19.7257 5.41179L19.2603 4.56371C19.0307 4.48869 18.8133 4.37683 18.6171 4.23075L17.9228 3.71378C17.8565 3.66442 17.7657 3.66442 17.6994 3.71378L17.0051 4.23075C16.6179 4.5191 16.1479 4.67484 15.6651 4.67484H15.4241C15.2708 4.67484 15.1465 4.79919 15.1465 4.95251V6.54476C15.1465 7.8072 16.0248 8.86381 17.2034 9.13891Z" fill="#FED2A4"/>
<path d="M19.9569 4.67461C19.7187 4.67461 19.4836 4.63652 19.2601 4.56348V6.54453C19.2601 7.80697 18.3818 8.86362 17.2031 9.13872C17.3984 9.18428 17.6017 9.20916 17.8108 9.20916C19.2825 9.20916 20.4755 8.01617 20.4755 6.54453V4.95228C20.4755 4.79891 20.3512 4.67461 20.1978 4.67461H19.9569Z" fill="#FFBD86"/>
<path d="M20.1556 15.2732L19.9118 14.9447C19.3433 14.4681 18.6108 14.1807 17.8109 14.1807C16.0037 14.1807 14.5386 15.6457 14.5386 17.453C14.5386 19.2603 16.0037 20.7254 17.8109 20.7254C19.6182 20.7254 21.0832 19.2603 21.0832 17.453C21.0832 16.9129 20.9516 16.4038 20.7198 15.9548L20.1556 15.2732Z" fill="#00F2A6"/>
<path d="M19.9116 14.9443C20.1434 15.3934 20.2751 15.9025 20.2751 16.4427C20.2751 18.25 18.81 19.7151 17.0027 19.7151C16.2028 19.7151 15.4703 19.4277 14.9019 18.9511C15.4455 20.0044 16.5436 20.7251 17.8107 20.7251C19.618 20.7251 21.0831 19.26 21.0831 17.4527C21.0831 16.4453 20.6276 15.5446 19.9116 14.9443Z" fill="#0ED290"/>
<path d="M17.3587 18.9354C17.1673 18.9354 16.9759 18.8623 16.8298 18.7163L16.1493 18.0357C15.8571 17.7436 15.8571 17.27 16.1493 16.9779C16.4414 16.6858 16.915 16.6858 17.207 16.9779L17.3587 17.1296L18.1668 16.3216C18.4588 16.0295 18.9325 16.0295 19.2245 16.3216C19.5167 16.6137 19.5167 17.0873 19.2245 17.3794L17.8877 18.7163C17.7415 18.8624 17.5501 18.9354 17.3587 18.9354Z" fill="#EAF6FF"/>
<path d="M7.72261 17.501H2.65547C1.02979 18.5472 0 20.3647 0 22.3669C0 22.7164 0.283367 22.9998 0.632949 22.9998H4.30626L5.18902 22.3855L6.07177 22.9998H9.74508C10.0947 22.9998 10.378 22.7164 10.378 22.3669C10.378 20.3647 9.34824 18.5472 7.72261 17.501Z" fill="#EAF6FF"/>
<path d="M6.07167 22.9998L5.60422 19.9206L5.18891 19.6787L4.77361 19.9206L4.30615 22.9998H6.07167Z" fill="#FD8087"/>
<path d="M5.60422 19.9203L6.07167 18.8458V18.1775L5.18891 17.9629L4.53076 18.304L4.30615 18.8458L4.77361 19.9203H5.60422Z" fill="#FE646F"/>
<path d="M7.72255 17.501H6.60059C8.22622 18.5472 9.25605 20.3647 9.25605 22.3669C9.25605 22.7165 8.97269 22.9998 8.6231 22.9998H9.74507C10.0947 22.9998 10.378 22.7164 10.378 22.3669C10.378 20.3647 9.34819 18.5472 7.72255 17.501Z" fill="#D8ECFE"/>
<path d="M6.31093 16.8408H5.18896V17.9628L6.07172 18.8455C6.27311 19.0469 6.59417 19.0663 6.81698 18.8889C7.25398 18.5409 7.57764 18.0565 7.72251 17.5005C7.29113 17.2228 6.81828 16.9988 6.31093 16.8408Z" fill="#B3DAFE"/>
<path d="M4.06685 16.8408H5.18882V17.9628L4.30606 18.8455C4.10468 19.0469 3.78362 19.0663 3.56081 18.8889C3.12381 18.5409 2.80015 18.0565 2.65527 17.5005C3.08666 17.2228 3.55955 16.9988 4.06685 16.8408Z" fill="#B3DAFE"/>
<path d="M5.18886 17.9636C4.56921 17.9636 4.06689 17.4612 4.06689 16.8416V15.5645H6.31079V16.8416C6.31083 17.4612 5.80852 17.9636 5.18886 17.9636Z" fill="#F6A96C"/>
<path d="M2.52418 10.3155V11.7179L1.96729 12.5876L2.52418 13.5878C2.52418 14.8503 3.40245 15.9069 4.58111 16.182H5.24739L6.11591 15.8761L6.3102 16.005C7.22139 15.5815 7.85344 14.6587 7.85344 13.5878V10.3154L2.52418 10.3155Z" fill="#FED2A4"/>
<path d="M6.63798 10.3154V13.5878C6.63798 14.8502 5.75971 15.9069 4.58105 16.182C4.77633 16.2276 4.9796 16.2524 5.18876 16.2524C6.6604 16.2524 7.85339 15.0594 7.85339 13.5878L8.36721 12.6528L7.85339 11.7179V10.3154H6.63798Z" fill="#FFBD86"/>
<path d="M1.71484 9.94717V12.1849L2.51661 11.7175H4.13573C4.82537 11.7175 5.50239 11.5324 6.09612 11.1815L6.53995 10.9192C6.63882 10.8607 6.7633 10.8685 6.85418 10.9387L7.54166 11.47L7.97138 11.5037L7.86182 11.7175L8.66358 12.1849V9.50329C8.66358 8.45109 7.93545 7.5389 6.90943 7.30572L6.70369 7.25895C6.27931 6.82186 5.69605 6.5752 5.08681 6.5752C3.22449 6.5752 1.71484 8.08484 1.71484 9.94717Z" fill="#7A6D79"/>
<path d="M6.90911 7.30599L6.82178 7.28613C7.26839 7.70162 7.54134 8.29265 7.54134 8.93647V11.4703L7.86149 11.7177L8.66326 12.1852V9.50352C8.66331 8.45136 7.93517 7.53918 6.90911 7.30599Z" fill="#685E68"/>
<path d="M8.32102 13.5877H7.85352V11.7178H8.32102C8.83739 11.7178 9.25598 12.1364 9.25598 12.6527C9.25598 13.1691 8.83735 13.5877 8.32102 13.5877Z" fill="#F6A96C"/>
<path d="M2.05703 13.5877H2.52453V11.7178H2.05703C1.54065 11.7178 1.12207 12.1364 1.12207 12.6527C1.12207 13.1691 1.54065 13.5877 2.05703 13.5877Z" fill="#F6A96C"/>
<path d="M12.3128 1.68849L9.97237 0.0794368C9.67571 -0.124509 9.272 0.0878821 9.272 0.447841V1.3089H6.68481C5.44555 1.3089 4.44092 2.31354 4.44092 3.5528V4.61205C4.44092 4.87022 4.65021 5.07956 4.90842 5.07956H5.4694C5.72757 5.07956 5.93691 4.87027 5.93691 4.61205V3.5528C5.93691 3.13969 6.2718 2.80485 6.68485 2.80485H9.27204V3.66595C9.27204 4.02591 9.67575 4.2383 9.97242 4.03436L12.3128 2.4253C12.5712 2.24768 12.5712 1.86616 12.3128 1.68849Z" fill="#00F2A6"/>
</g>
<defs>
<clipPath id="clip0_1_12469">
<rect width="23" height="23" fill="white"/>
</clipPath>
</defs>
</svg>
