<svg width="48" height="48" viewBox="0 0 48 48" fill="none" xmlns="http://www.w3.org/2000/svg">
<path d="M12.5 16C12.5 17.0878 12.8226 18.1512 13.4269 19.0556C14.0313 19.9601 14.8902 20.6651 15.8952 21.0813C16.9002 21.4976 18.0061 21.6065 19.073 21.3943C20.1399 21.1821 21.1199 20.6583 21.8891 19.8891C22.6583 19.1199 23.1821 18.1399 23.3943 17.073C23.6065 16.0061 23.4976 14.9002 23.0813 13.8952C22.6651 12.8902 21.9601 12.0313 21.0556 11.4269C20.1512 10.8226 19.0878 10.5 18 10.5C16.5416 10.5011 15.1433 11.0809 14.1121 12.1121C13.0809 13.1433 12.5011 14.5416 12.5 16ZM20.5 16C20.5 16.4945 20.3534 16.9778 20.0787 17.3889C19.804 17.8 19.4135 18.1205 18.9567 18.3097C18.4999 18.4989 17.9972 18.5484 17.5123 18.452C17.0273 18.3555 16.5819 18.1174 16.2322 17.7678C15.8826 17.4181 15.6445 16.9727 15.548 16.4877C15.4516 16.0028 15.5011 15.5001 15.6903 15.0433C15.8795 14.5865 16.2 14.196 16.6111 13.9213C17.0222 13.6466 17.5055 13.5 18 13.5C18.6627 13.5011 19.298 13.7648 19.7666 14.2334C20.2352 14.702 20.4989 15.3373 20.5 16ZM44 18.5C43.6022 18.5 43.2206 18.658 42.9393 18.9393C42.658 19.2206 42.5 19.6022 42.5 20V24.534L41.718 23.864C40.6496 22.9787 39.3055 22.4943 37.918 22.4943C36.5305 22.4943 35.1864 22.9787 34.118 23.864L25.8 31C25.2757 31.4175 24.6252 31.6448 23.955 31.6448C23.2848 31.6448 22.6343 31.4175 22.11 31L21.446 30.43C20.4607 29.6145 19.2397 29.1369 17.9626 29.0674C16.6856 28.9979 15.4199 29.3402 14.352 30.044L6.098 35.584C5.66508 33.7551 5.46416 31.8791 5.5 30V18C5.5 8.772 8.772 5.5 18 5.5H26C26.3978 5.5 26.7794 5.34196 27.0607 5.06066C27.342 4.77936 27.5 4.39782 27.5 4C27.5 3.60218 27.342 3.22064 27.0607 2.93934C26.7794 2.65804 26.3978 2.5 26 2.5H18C7.136 2.5 2.5 7.134 2.5 18V30C2.5 40.866 7.136 45.5 18 45.5H30C40.864 45.5 45.5 40.866 45.5 30V20C45.5 19.6022 45.342 19.2206 45.0607 18.9393C44.7794 18.658 44.3978 18.5 44 18.5ZM42.5 30C42.5 39.228 39.228 42.5 30 42.5H18C12.486 42.5 9.112 41.318 7.278 38.41L16.022 32.542C16.5463 32.2065 17.1621 32.0425 17.7838 32.0726C18.4055 32.1027 19.0025 32.3255 19.492 32.71L20.156 33.282C21.2236 34.1691 22.5679 34.6547 23.956 34.6547C25.3441 34.6547 26.6884 34.1691 27.756 33.282L36.08 26.14C36.6048 25.7244 37.2546 25.4982 37.924 25.4982C38.5934 25.4982 39.2432 25.7244 39.768 26.14L42.504 28.488L42.5 30ZM30 10C30 9.60218 30.158 9.22064 30.4393 8.93934C30.7206 8.65804 31.1022 8.5 31.5 8.5H35.5V4.5C35.5 4.10218 35.658 3.72064 35.9393 3.43934C36.2206 3.15804 36.6022 3 37 3C37.3978 3 37.7794 3.15804 38.0607 3.43934C38.342 3.72064 38.5 4.10218 38.5 4.5V8.5H42.5C42.8978 8.5 43.2794 8.65804 43.5607 8.93934C43.842 9.22064 44 9.60218 44 10C44 10.3978 43.842 10.7794 43.5607 11.0607C43.2794 11.342 42.8978 11.5 42.5 11.5H38.5V15.5C38.5 15.8978 38.342 16.2794 38.0607 16.5607C37.7794 16.842 37.3978 17 37 17C36.6022 17 36.2206 16.842 35.9393 16.5607C35.658 16.2794 35.5 15.8978 35.5 15.5V11.5H31.5C31.1022 11.5 30.7206 11.342 30.4393 11.0607C30.158 10.7794 30 10.3978 30 10Z" fill="#D41000"/>
</svg>
