<svg width="24" height="24" viewBox="0 0 24 24" fill="none" xmlns="http://www.w3.org/2000/svg">
<path d="M18 1.25H6C3.37665 1.25 1.25 3.37665 1.25 6V18C1.25 20.6234 3.37665 22.75 6 22.75H18C20.6234 22.75 22.75 20.6234 22.75 18V6C22.75 3.37665 20.6234 1.25 18 1.25Z" fill="#4285F4"/>
<path d="M18.8 17.1317L16.409 12.9487C16.2656 12.6968 16.0617 12.4846 15.8157 12.3313C15.5696 12.178 15.2893 12.0884 15 12.0707C14.7097 12.0485 14.4186 12.1012 14.1546 12.2238C13.8905 12.3464 13.6624 12.5347 13.492 12.7707L12.376 14.2587C12.3509 14.2938 12.3169 14.3215 12.2775 14.3391C12.2382 14.3566 12.1948 14.3634 12.152 14.3587C12.1095 14.3558 12.0685 14.3415 12.0333 14.3175C11.9982 14.2934 11.9701 14.2603 11.952 14.2217L10.623 11.5657C10.4711 11.2718 10.2406 11.0257 9.95731 10.8549C9.67398 10.684 9.34884 10.595 9.01798 10.5977C8.68588 10.6033 8.36237 10.7042 8.08598 10.8884C7.80958 11.0726 7.59195 11.3323 7.45898 11.6367L4.93898 17.2887C4.82075 17.5553 4.77095 17.8471 4.7941 18.1377C4.81725 18.4284 4.91262 18.7087 5.07156 18.9531C5.23049 19.1976 5.44795 19.3985 5.70421 19.5376C5.96046 19.6767 6.2474 19.7496 6.53898 19.7497H17.276C17.5829 19.7505 17.8846 19.6706 18.1508 19.5179C18.417 19.3653 18.6384 19.1454 18.7928 18.8801C18.9472 18.6149 19.0292 18.3138 19.0304 18.0069C19.0317 17.7 18.9522 17.3982 18.8 17.1317Z" fill="#AFCBF9"/>
<path d="M14.375 9C15.6867 9 16.75 7.93668 16.75 6.625C16.75 5.31332 15.6867 4.25 14.375 4.25C13.0633 4.25 12 5.31332 12 6.625C12 7.93668 13.0633 9 14.375 9Z" fill="white"/>
</svg>
