<svg width="74" height="74" viewBox="0 0 74 74" fill="none" xmlns="http://www.w3.org/2000/svg">
<g clip-path="url(#clip0_1_2311)">
<path d="M19.2694 57.1376C14.3332 57.1376 9.94239 53.977 8.34799 49.2717L8.24015 48.9172C7.86413 47.6711 7.70661 46.6232 7.70661 45.5748V24.5518L0.226373 49.5213C-0.735687 53.1939 1.45661 57.0015 5.13491 58.0161L52.8139 70.7848C53.409 70.939 54.0041 71.0129 54.5901 71.0129C57.6609 71.0129 60.4669 68.9748 61.2534 65.9711L64.0312 57.1376H19.2694Z" fill="#DADADA"/>
<path d="M27.749 24.7617C31.1501 24.7617 33.9155 21.9958 33.9155 18.5947C33.9155 15.1937 31.1501 12.4277 27.749 12.4277C24.348 12.4277 21.582 15.1937 21.582 18.5947C21.582 21.9958 24.348 24.7617 27.749 24.7617Z" fill="#DADADA"/>
<path d="M66.2915 3.17773H20.0404C15.7918 3.17773 12.332 6.63754 12.332 10.8866V44.8038C12.332 49.0529 15.7918 52.5127 20.0404 52.5127H66.2915C70.5406 52.5127 74.0004 49.0529 74.0004 44.8038V10.8866C74.0004 6.63754 70.5406 3.17773 66.2915 3.17773ZM20.0404 9.34474H66.2915C67.1429 9.34474 67.8334 10.0352 67.8334 10.8866V32.7758L58.0931 21.41C57.0599 20.1984 55.5643 19.5508 53.9581 19.5141C52.3608 19.5232 50.8624 20.2323 49.8388 21.4597L38.3867 35.2052L34.6559 31.4834C32.5471 29.3747 29.115 29.3747 27.0091 31.4834L18.499 39.9906V10.8866C18.499 10.0352 19.1895 9.34474 20.0404 9.34474Z" fill="#DADADA"/>
</g>
<defs>
<clipPath id="clip0_1_2311">
<rect width="74" height="74" fill="white"/>
</clipPath>
</defs>
</svg>
