<svg width="18" height="18" viewBox="0 0 18 18" fill="none" xmlns="http://www.w3.org/2000/svg">
<g clip-path="url(#clip0_1_7722)">
<path d="M9 0C4.02936 0 0 4.0295 0 9C0 13.9708 4.02936 18 9 18C13.9706 18 18 13.9708 18 9C18 4.0295 13.9706 0 9 0ZM9 4.5C9.62135 4.5 10.125 5.00372 10.125 5.625C10.125 6.24656 9.62135 6.75 9 6.75C8.37865 6.75 7.875 6.24656 7.875 5.625C7.875 5.00372 8.37865 4.5 9 4.5ZM10.6875 13.5H7.3125C7.00186 13.5 6.75 13.2484 6.75 12.9375C6.75 12.6269 7.00186 12.375 7.3125 12.375H7.875V9H7.3125C7.00186 9 6.75 8.74842 6.75 8.4375C6.75 8.12686 7.00186 7.875 7.3125 7.875H9.5625C9.87314 7.875 10.125 8.12686 10.125 8.4375V12.375H10.6875C10.9981 12.375 11.25 12.6269 11.25 12.9375C11.25 13.2484 10.9981 13.5 10.6875 13.5Z" fill="#D41000"/>
</g>
<defs>
<clipPath id="clip0_1_7722">
<rect width="18" height="18" fill="white"/>
</clipPath>
</defs>
</svg>
