<svg width="23" height="23" viewBox="0 0 23 23" fill="none" xmlns="http://www.w3.org/2000/svg">
<path d="M13.1588 19.1583C13.1588 17.0648 14.862 15.3616 16.9556 15.3616C17.6394 15.3616 18.281 15.5442 18.8358 15.8619V0.231393C18.8358 0.10359 18.7322 0 18.6044 0H2.43452C2.30671 0 2.20312 0.10359 2.20312 0.231393V22.26C2.20312 22.3878 2.30671 22.4914 2.43452 22.4914H15.1391C13.9602 21.8464 13.1588 20.5943 13.1588 19.1583Z" fill="#EAF6FF"/>
<path d="M4.28763 22.26V0.231393C4.28763 0.10359 4.39122 0 4.51903 0H2.43452C2.30671 0 2.20312 0.10359 2.20312 0.231393V22.26C2.20312 22.3878 2.30671 22.4914 2.43452 22.4914H4.51903C4.39122 22.4914 4.28763 22.3878 4.28763 22.26Z" fill="#D8ECFE"/>
<path d="M9.98702 20.4259H3.77303C3.69504 20.4259 3.63184 20.3627 3.63184 20.2847V19.2262C3.63184 19.1482 3.69504 19.085 3.77303 19.085H9.98702C10.065 19.085 10.1282 19.1482 10.1282 19.2262V20.2847C10.1282 20.3627 10.065 20.4259 9.98702 20.4259Z" fill="#4FC123"/>
<path d="M5.19403 20.2846V19.2261C5.19403 19.1481 5.25724 19.085 5.33522 19.085H3.77347C3.69553 19.085 3.63232 19.1482 3.63232 19.2261V20.2846C3.63232 20.3626 3.69553 20.4258 3.77347 20.4258H5.33522C5.25724 20.4258 5.19403 20.3626 5.19403 20.2846Z" fill="#47A920"/>
<path d="M3.96875 8.05469H17.0704V13.6299H3.96875V8.05469Z" fill="white"/>
<path d="M3.96875 8.05469H5.15514V13.6299H3.96875V8.05469Z" fill="#F3F0F3"/>
<path d="M12.4243 8.05469H17.0703V13.6299H12.4243V8.05469Z" fill="#8AC9FE"/>
<path d="M17.2659 3.75222H10.3941C10.3161 3.75222 10.2529 3.68902 10.2529 3.61103V2.54549C10.2529 2.4675 10.3161 2.4043 10.3941 2.4043H17.2659C17.3439 2.4043 17.4071 2.4675 17.4071 2.54549V3.61103C17.4071 3.68902 17.3438 3.75222 17.2659 3.75222Z" fill="#0593FC"/>
<path d="M11.8096 3.61103V2.54549C11.8096 2.4675 11.8728 2.4043 11.9507 2.4043H10.3941C10.3161 2.4043 10.2529 2.4675 10.2529 2.54549V3.61103C10.2529 3.68902 10.3161 3.75222 10.3941 3.75222H11.9507C11.8728 3.75222 11.8096 3.68902 11.8096 3.61103Z" fill="#0182FC"/>
<path d="M15.6381 15.5973C15.577 15.5355 15.4922 15.4971 15.3985 15.4971H8.24365C8.05754 15.4971 7.90674 15.6479 7.90674 15.834C7.90674 16.0201 8.05754 16.1709 8.24365 16.1709H14.6161C14.9227 15.9303 15.2665 15.7352 15.6381 15.5973Z" fill="#60B7FF"/>
<path d="M13.7823 17.0771H8.24365C8.05754 17.0771 7.90674 17.228 7.90674 17.4141C7.90674 17.6001 8.05754 17.751 8.24365 17.751H13.4303C13.5254 17.5137 13.6435 17.2881 13.7823 17.0771Z" fill="#60B7FF"/>
<path d="M6.98862 16.1709H3.96875C3.78264 16.1709 3.63184 16.0201 3.63184 15.834C3.63184 15.6479 3.78264 15.4971 3.96875 15.4971H6.98867C7.17478 15.4971 7.32558 15.6479 7.32558 15.834C7.32558 16.0201 7.17473 16.1709 6.98862 16.1709Z" fill="#60B7FF"/>
<path d="M6.98862 17.751H3.96875C3.78264 17.751 3.63184 17.6001 3.63184 17.4141C3.63184 17.228 3.78264 17.0771 3.96875 17.0771H6.98867C7.17478 17.0771 7.32558 17.228 7.32558 17.4141C7.32558 17.6001 7.17473 17.751 6.98862 17.751Z" fill="#60B7FF"/>
<path d="M16.9554 22.9998C19.0771 22.9998 20.7971 21.2798 20.7971 19.1581C20.7971 17.0364 19.0771 15.3164 16.9554 15.3164C14.8337 15.3164 13.1138 17.0364 13.1138 19.1581C13.1138 21.2798 14.8337 22.9998 16.9554 22.9998Z" fill="#FEDF30"/>
<path d="M16.9553 21.7055C18.362 21.7055 19.5023 20.5651 19.5023 19.1584C19.5023 17.7517 18.362 16.6113 16.9553 16.6113C15.5486 16.6113 14.4082 17.7517 14.4082 19.1584C14.4082 20.5651 15.5486 21.7055 16.9553 21.7055Z" fill="#4FC123"/>
<path d="M16.124 19.1584C16.124 18.0549 16.8296 17.1134 17.8132 16.7604C17.545 16.6641 17.2562 16.6113 16.9553 16.6113C15.5508 16.6113 14.4082 17.754 14.4082 19.1584C14.4082 20.5629 15.5508 21.7055 16.9553 21.7055C17.2562 21.7055 17.545 21.6527 17.8132 21.5565C16.8296 21.2035 16.124 20.2619 16.124 19.1584Z" fill="#47A920"/>
<path d="M16.7812 20.2995C16.6918 20.2995 16.6061 20.264 16.5429 20.2008L15.4761 19.134C15.3445 19.0024 15.3445 18.7891 15.4761 18.6576C15.6078 18.5259 15.8211 18.526 15.9526 18.6576L16.7811 19.4861L17.9586 18.3086C18.0902 18.1771 18.3035 18.1771 18.435 18.3086C18.5666 18.4402 18.5666 18.6536 18.435 18.7851L17.0193 20.2008C16.9562 20.264 16.8705 20.2995 16.7812 20.2995Z" fill="white"/>
<path d="M6.01427 3.7648H4.68781C4.47713 3.7648 4.30571 3.59338 4.30566 3.38274V3.36082C4.30566 3.15009 4.47709 2.97867 4.68781 2.97867H6.28263C6.46874 2.97867 6.61954 2.82782 6.61954 2.64175C6.61954 2.45569 6.46874 2.30484 6.28263 2.30484H5.68733V2.09375C5.68733 1.90768 5.53652 1.75684 5.35041 1.75684C5.1643 1.75684 5.0135 1.90768 5.0135 2.09375V2.30484H4.68781C4.10554 2.30484 3.63184 2.77854 3.63184 3.36082V3.38278C3.63188 3.96497 4.10563 4.43863 4.68781 4.43863H6.01427C6.22428 4.43863 6.39512 4.60946 6.39512 4.81947C6.39512 5.02948 6.22428 5.20032 6.01427 5.20032H4.40588C4.21977 5.20032 4.06897 5.35117 4.06897 5.53724C4.06897 5.7233 4.21977 5.87415 4.40588 5.87415H5.01345V6.08519C5.01345 6.27126 5.16426 6.42211 5.35037 6.42211C5.53648 6.42211 5.68728 6.27126 5.68728 6.08519V5.87415H6.01422C6.59574 5.87415 7.0689 5.40103 7.0689 4.81947C7.0689 4.23792 6.59578 3.7648 6.01427 3.7648Z" fill="#47A920"/>
<path d="M17.0702 5.35547H13.7251C13.539 5.35547 13.3882 5.20462 13.3882 5.01855C13.3882 4.83249 13.539 4.68164 13.7251 4.68164H17.0702C17.2563 4.68164 17.4071 4.83249 17.4071 5.01855C17.4071 5.20462 17.2563 5.35547 17.0702 5.35547Z" fill="#8AC9FE"/>
<path d="M17.0704 7.71777H3.96875C3.78264 7.71777 3.63184 7.86862 3.63184 8.05469V13.6299C3.63184 13.8159 3.78264 13.9668 3.96875 13.9668H17.0704C17.2566 13.9668 17.4074 13.8159 17.4074 13.6299V8.05469C17.4074 7.86862 17.2566 7.71777 17.0704 7.71777ZM4.30566 10.25H5.5367V11.4346H4.30566V10.25ZM12.0875 11.4346H6.21053V10.25H12.0875V11.4346ZM12.7614 11.4346V10.25H16.7335V11.4346H12.7614ZM16.7335 12.1084V13.293H12.7614V12.1084H16.7335ZM12.0875 9.57619H6.21053V8.3916H12.0875V9.57619ZM6.21053 12.1084H12.0875V13.293H6.21053V12.1084ZM16.7335 9.57619H12.7614V8.3916H16.7335V9.57619ZM5.5367 8.3916V9.57619H4.30566V8.3916H5.5367ZM4.30566 12.1084H5.5367V13.293H4.30566V12.1084Z" fill="#B3DAFE"/>
</svg>
