<svg width="22" height="22" viewBox="0 0 22 22" fill="none" xmlns="http://www.w3.org/2000/svg">
<g clip-path="url(#clip0_1_15185)">
<path d="M5.92819 5.85449H5.65382L5.14111 8.41869H6.44091L5.92819 5.85449Z" fill="url(#paint0_linear_1_15185)"/>
<path d="M16.2988 10.9834C16.5756 11.727 16.9438 12.3289 17.3513 12.841C17.7587 12.3289 18.1696 11.7269 18.4464 10.9834H16.2988Z" fill="url(#paint1_linear_1_15185)"/>
<path d="M19.958 3.88867H11.9969L13.6569 17.2088C13.6862 17.7536 13.5373 18.2665 13.1817 18.6681L10.3706 21.8808H19.958C21.0185 21.8808 21.8812 21.0181 21.8812 19.9577V5.85456C21.8812 4.79409 21.0185 3.88867 19.958 3.88867ZM19.958 10.983H19.7868C19.4221 12.1532 18.8436 13.0689 18.2425 13.7908C18.7134 14.2214 19.217 14.5745 19.7176 14.9701C19.9937 15.1911 20.0388 15.5942 19.8172 15.871C19.5966 16.1473 19.1918 16.192 18.9163 15.9705C18.3723 15.5411 17.8617 15.1817 17.3511 14.7131C16.8405 15.1817 16.3726 15.5411 15.8286 15.9705C15.5531 16.192 15.1484 16.1473 14.9277 15.871C14.7061 15.5942 14.7512 15.1911 15.0273 14.9701C15.5279 14.5745 15.9888 14.2214 16.4597 13.7908C15.8585 13.069 15.3228 12.1533 14.9581 10.983H14.7869C14.4326 10.983 14.1458 10.6962 14.1458 10.3419C14.1458 9.98758 14.4326 9.70086 14.7869 9.70086H16.71V9.05981C16.71 8.70548 16.9968 8.41876 17.3511 8.41876C17.7054 8.41876 17.9921 8.70548 17.9921 9.05981V9.70086H19.958C20.3124 9.70086 20.5991 9.98758 20.5991 10.3419C20.5991 10.6962 20.3124 10.983 19.958 10.983Z" fill="url(#paint2_linear_1_15185)"/>
<path d="M10.4348 1.68464C10.3152 0.724301 9.49446 0 8.52665 0H1.92315C0.862682 0 0 0.862682 0 1.92315V16.1117C0 17.1722 0.862682 18.0349 1.92315 18.0349C5.75535 18.0349 8.51216 18.0349 12.0326 18.0349C12.2196 17.8211 12.3763 17.6873 12.3829 17.4082C12.3846 17.3383 10.4434 1.75404 10.4348 1.68464ZM7.86115 12.2529C7.52123 12.3229 7.1769 12.1022 7.10681 11.7502L6.69709 9.70122H4.88459L4.47487 11.7502C4.40602 12.097 4.07169 12.3249 3.72053 12.2529C3.37372 12.1834 3.14832 11.846 3.21781 11.4986L4.49987 5.08806C4.55996 4.78881 4.82292 4.57282 5.1284 4.57282H6.45324C6.75872 4.57282 7.02168 4.78881 7.08176 5.08806L8.36386 11.4986C8.43335 11.846 8.208 12.1834 7.86115 12.2529Z" fill="url(#paint3_linear_1_15185)"/>
<path d="M7.49023 19.3174L7.60024 20.1969C7.67357 20.786 8.06496 21.3866 8.70874 21.6866C9.92366 20.3492 9.18863 21.1583 10.8609 19.3174H7.49023Z" fill="url(#paint4_linear_1_15185)"/>
</g>
<defs>
<linearGradient id="paint0_linear_1_15185" x1="5.79101" y1="5.85449" x2="5.79101" y2="8.41869" gradientUnits="userSpaceOnUse">
<stop stop-color="#814BA2"/>
<stop offset="0.620192" stop-color="#6E2C97"/>
</linearGradient>
<linearGradient id="paint1_linear_1_15185" x1="17.3726" y1="10.9834" x2="17.3726" y2="12.841" gradientUnits="userSpaceOnUse">
<stop stop-color="#814BA2"/>
<stop offset="0.620192" stop-color="#6E2C97"/>
</linearGradient>
<linearGradient id="paint2_linear_1_15185" x1="16.1259" y1="3.88867" x2="16.1259" y2="21.8808" gradientUnits="userSpaceOnUse">
<stop stop-color="#814BA2"/>
<stop offset="0.620192" stop-color="#6E2C97"/>
</linearGradient>
<linearGradient id="paint3_linear_1_15185" x1="6.19147" y1="0" x2="6.19147" y2="18.0349" gradientUnits="userSpaceOnUse">
<stop stop-color="#814BA2"/>
<stop offset="0.620192" stop-color="#6E2C97"/>
</linearGradient>
<linearGradient id="paint4_linear_1_15185" x1="9.17558" y1="19.3174" x2="9.17558" y2="21.6866" gradientUnits="userSpaceOnUse">
<stop stop-color="#814BA2"/>
<stop offset="0.620192" stop-color="#6E2C97"/>
</linearGradient>
<clipPath id="clip0_1_15185">
<rect width="21.8812" height="21.8812" fill="white"/>
</clipPath>
</defs>
</svg>
