<svg width="30" height="30" viewBox="0 0 30 30" fill="none" xmlns="http://www.w3.org/2000/svg">
<g clip-path="url(#clip0_1_12780)">
<path d="M2.7523 25.5304H27.2523C28.77 25.5304 30.0002 24.3001 30.0002 22.7825V7.21959C30.0002 5.70196 28.77 4.47168 27.2523 4.47168H2.7523C1.23468 4.47168 0.00439453 5.70196 0.00439453 7.21959V22.7825C0.00439453 24.3001 1.23468 25.5304 2.7523 25.5304Z" fill="#5950D3"/>
<path d="M10.2009 10.0341L11.5609 12.3264L14.1614 12.9115C14.9544 13.09 15.2671 14.0524 14.7304 14.6629L12.9706 16.6648L13.2176 19.3187C13.293 20.1281 12.4743 20.7229 11.7278 20.4011L9.28014 19.346L6.83243 20.4011C6.08595 20.7229 5.26729 20.1281 5.34264 19.3187L5.58973 16.6648L3.82987 14.6629C3.29317 14.0524 3.60587 13.09 4.39892 12.9115L6.99934 12.3264L8.35939 10.0341C8.77418 9.33499 9.78611 9.33499 10.2009 10.0341Z" fill="#FFDC6E"/>
<path d="M25.5238 13.8973H19.6984C19.1938 13.8973 18.7847 13.4882 18.7847 12.9836V10.4235C18.7847 9.91885 19.1938 9.50977 19.6984 9.50977H25.5238C26.0285 9.50977 26.4376 9.91885 26.4376 10.4235V12.9836C26.4376 13.4882 26.0285 13.8973 25.5238 13.8973Z" fill="#F0F0FC"/>
<path opacity="0.1" d="M16.5234 25.5268H2.75101C1.23412 25.5268 0 24.3013 0 22.7843V7.22079C0 5.70384 1.23412 4.46973 2.75101 4.46973H11.227C8.9216 6.75802 7.49896 9.92897 7.49896 13.4342C7.49896 19.1506 11.3042 23.9842 16.5234 25.5268Z" fill="black"/>
<path d="M26.4374 17.8015H18.785C18.5481 17.8015 18.3564 17.6098 18.3564 17.3729C18.3564 17.136 18.5481 16.9443 18.785 16.9443H26.4374C26.6742 16.9443 26.8659 17.136 26.8659 17.3729C26.8659 17.6098 26.6742 17.8015 26.4374 17.8015Z" fill="#F0F0FC"/>
<path d="M26.4374 20.9187H18.785C18.5481 20.9187 18.3564 20.727 18.3564 20.4901C18.3564 20.2532 18.5481 20.0615 18.785 20.0615H26.4374C26.6742 20.0615 26.8659 20.2532 26.8659 20.4901C26.8659 20.727 26.6742 20.9187 26.4374 20.9187Z" fill="#F0F0FC"/>
</g>
<defs>
<clipPath id="clip0_1_12780">
<rect width="30" height="30" fill="white"/>
</clipPath>
</defs>
</svg>
