<svg width="18" height="18" viewBox="0 0 18 18" fill="none" xmlns="http://www.w3.org/2000/svg">
<path d="M1.61437 16.0646C1.33586 16.0631 1.06917 15.9518 0.87222 15.7548C0.675274 15.5579 0.563978 15.2912 0.5625 15.0127V6.36145C0.563985 5.78456 0.79381 5.23172 1.20173 4.8238C1.60965 4.41588 2.16249 4.18606 2.73937 4.18457H13.005C13.5829 4.18457 14.1371 4.41374 14.5463 4.82182C14.9554 5.2299 15.186 5.78359 15.1875 6.36145V12.1271C15.1875 12.7049 14.9583 13.2592 14.5503 13.6683C14.1422 14.0775 13.5885 14.3081 13.0106 14.3096H4.44937C4.35214 14.3104 4.25764 14.3419 4.17937 14.3996L2.25 15.8564C2.06603 15.9924 1.84312 16.0654 1.61437 16.0646ZM2.73937 5.30957C2.46086 5.31105 2.19417 5.42234 1.99722 5.61929C1.80027 5.81624 1.68898 6.08293 1.6875 6.36145V14.8721L3.50437 13.4996C3.77775 13.2965 4.10885 13.1862 4.44937 13.1846H13.005C13.2855 13.1846 13.5544 13.0732 13.7528 12.8748C13.9511 12.6765 14.0625 12.4075 14.0625 12.1271V6.36145C14.061 6.08293 13.9497 5.81624 13.7528 5.61929C13.5558 5.42234 13.2891 5.31105 13.0106 5.30957H2.73937Z" fill="#D41000"/>
<path d="M10.0913 9.86035C10.402 9.86035 10.6538 9.60851 10.6538 9.29785C10.6538 8.98719 10.402 8.73535 10.0913 8.73535C9.78065 8.73535 9.52881 8.98719 9.52881 9.29785C9.52881 9.60851 9.78065 9.86035 10.0913 9.86035Z" fill="#D41000"/>
<path d="M7.90869 9.86035C8.21935 9.86035 8.47119 9.60851 8.47119 9.29785C8.47119 8.98719 8.21935 8.73535 7.90869 8.73535C7.59803 8.73535 7.34619 8.98719 7.34619 9.29785C7.34619 9.60851 7.59803 9.86035 7.90869 9.86035Z" fill="#D41000"/>
<path d="M5.65869 9.86035C5.96935 9.86035 6.22119 9.60851 6.22119 9.29785C6.22119 8.98719 5.96935 8.73535 5.65869 8.73535C5.34803 8.73535 5.09619 8.98719 5.09619 9.29785C5.09619 9.60851 5.34803 9.86035 5.65869 9.86035Z" fill="#D41000"/>
<path d="M16.875 10.3721C16.7258 10.3721 16.5827 10.3128 16.4773 10.2073C16.3718 10.1018 16.3125 9.95875 16.3125 9.80957V4.11145C16.311 3.83293 16.1997 3.56624 16.0028 3.36929C15.8058 3.17234 15.5391 3.06105 15.2606 3.05957H3.9375C3.78832 3.05957 3.64524 3.00031 3.53975 2.89482C3.43426 2.78933 3.375 2.64625 3.375 2.49707C3.375 2.34789 3.43426 2.20481 3.53975 2.09932C3.64524 1.99383 3.78832 1.93457 3.9375 1.93457H15.2606C15.8375 1.93606 16.3903 2.16588 16.7983 2.5738C17.2062 2.98172 17.436 3.53456 17.4375 4.11145V9.80957C17.4375 9.95875 17.3782 10.1018 17.2727 10.2073C17.1673 10.3128 17.0242 10.3721 16.875 10.3721Z" fill="#D41000"/>
</svg>
