<svg width="32" height="32" viewBox="0 0 32 32" fill="none" xmlns="http://www.w3.org/2000/svg">
<mask id="mask0_1_13338" style="mask-type:luminance" maskUnits="userSpaceOnUse" x="0" y="0" width="32" height="32">
<path d="M0 0H32V32H0V0Z" fill="white"/>
</mask>
<g mask="url(#mask0_1_13338)">
<path d="M9.33203 7.33366C9.33203 3.65177 12.3168 0.666992 15.9987 0.666992C19.6806 0.666992 22.6654 3.65177 22.6654 7.33366V14.667C22.6654 18.3489 19.6806 21.3337 15.9987 21.3337C12.3168 21.3337 9.33203 18.3489 9.33203 14.667V7.33366Z" fill="black"/>
<path d="M16.0073 24C16.0047 24 16.002 24 15.9993 24C15.9967 24 15.994 24 15.9914 24C12.0804 23.9962 8.7295 21.5866 7.34499 18.1664C7.0687 17.4838 6.29136 17.1545 5.60879 17.4308C4.92622 17.707 4.59686 18.4844 4.87316 19.1669C6.49304 23.1688 10.2108 26.1005 14.666 26.5933V30.6666C14.666 31.403 15.2629 32 15.9993 32C16.7357 32 17.3327 31.403 17.3327 30.6666V26.5936C21.7888 26.1013 25.5075 23.1693 27.1276 19.1669C27.4039 18.4844 27.0746 17.707 26.392 17.4308C25.7094 17.1545 24.932 17.4838 24.6558 18.1664C23.2711 21.5873 19.9192 23.9972 16.0073 24Z" fill="black"/>
</g>
</svg>
