<svg width="21" height="21" viewBox="0 0 21 21" fill="none" xmlns="http://www.w3.org/2000/svg">
<g clip-path="url(#clip0_1_15201)">
<path d="M10.2572 20.5139C11.4869 20.5139 12.5458 19.7711 13.0104 18.7109H7.50391C7.96855 19.7711 9.02752 20.5139 10.2572 20.5139Z" fill="url(#paint0_linear_1_15201)"/>
<path d="M16.4672 9.93075V8.61411C16.4672 5.81665 14.6077 3.4456 12.06 2.67117V1.80295C12.06 0.808805 11.2511 0 10.257 0C9.26285 0 8.45405 0.808805 8.45405 1.80295V2.67117C5.90627 3.4456 4.04683 5.81661 4.04683 8.61411V9.93075C4.04683 12.388 3.11017 14.7181 1.40943 16.4917C1.24276 16.6655 1.19592 16.922 1.29039 17.1435C1.38487 17.365 1.60242 17.5087 1.84322 17.5087H18.6708C18.9116 17.5087 19.1291 17.365 19.2236 17.1435C19.318 16.922 19.2712 16.6655 19.1046 16.4917C17.4038 14.7181 16.4672 12.388 16.4672 9.93075ZM10.858 2.4331C10.6602 2.41403 10.4597 2.40394 10.257 2.40394C10.0543 2.40394 9.85382 2.41403 9.65601 2.4331V1.80295C9.65601 1.47157 9.92562 1.20197 10.257 1.20197C10.5884 1.20197 10.858 1.47157 10.858 1.80295V2.4331Z" fill="url(#paint1_linear_1_15201)"/>
<path d="M18.0698 8.61393C18.0698 8.94583 18.3389 9.21492 18.6708 9.21492C19.0027 9.21492 19.2718 8.94583 19.2718 8.61393C19.2718 6.20599 18.3341 3.94216 16.6314 2.23949C16.3967 2.00483 16.0162 2.00479 15.7815 2.23949C15.5468 2.47419 15.5468 2.8547 15.7815 3.0894C17.2572 4.56506 18.0698 6.52703 18.0698 8.61393Z" fill="url(#paint2_linear_1_15201)"/>
<path d="M1.84317 9.21489C2.17508 9.21489 2.44416 8.94581 2.44416 8.61391C2.44416 6.52705 3.25685 4.56507 4.73246 3.08942C4.96717 2.85471 4.96717 2.47421 4.73246 2.2395C4.4978 2.0048 4.11726 2.0048 3.88255 2.2395C2.17988 3.94217 1.24219 6.20596 1.24219 8.61391C1.24219 8.94581 1.51127 9.21489 1.84317 9.21489Z" fill="url(#paint3_linear_1_15201)"/>
</g>
<defs>
<linearGradient id="paint0_linear_1_15201" x1="10.2572" y1="18.7109" x2="10.2572" y2="20.5139" gradientUnits="userSpaceOnUse">
<stop stop-color="#814BA2"/>
<stop offset="0.620192" stop-color="#6E2C97"/>
</linearGradient>
<linearGradient id="paint1_linear_1_15201" x1="10.257" y1="0" x2="10.257" y2="17.5087" gradientUnits="userSpaceOnUse">
<stop stop-color="#814BA2"/>
<stop offset="0.620192" stop-color="#6E2C97"/>
</linearGradient>
<linearGradient id="paint2_linear_1_15201" x1="17.4386" y1="2.06348" x2="17.4386" y2="9.21492" gradientUnits="userSpaceOnUse">
<stop stop-color="#814BA2"/>
<stop offset="0.620192" stop-color="#6E2C97"/>
</linearGradient>
<linearGradient id="paint3_linear_1_15201" x1="3.07534" y1="2.06348" x2="3.07534" y2="9.21489" gradientUnits="userSpaceOnUse">
<stop stop-color="#814BA2"/>
<stop offset="0.620192" stop-color="#6E2C97"/>
</linearGradient>
<clipPath id="clip0_1_15201">
<rect width="20.5136" height="20.5136" fill="white"/>
</clipPath>
</defs>
</svg>
