<svg width="26" height="26" viewBox="0 0 26 26" fill="none" xmlns="http://www.w3.org/2000/svg">
<g clip-path="url(#clip0_1_15630)">
<path d="M24.805 13.0009L25.9457 10.0257C26.0708 9.69751 25.9733 9.32541 25.6987 9.1028L23.2256 7.09769L22.7252 3.95028C22.6699 3.60255 22.3969 3.3312 22.0492 3.27595L18.9018 2.77549L16.8983 0.30078C16.6773 0.0261735 16.2971 -0.0713199 15.977 0.0537966L13.0002 1.19609L10.025 0.0554215C9.69517 -0.0713199 9.32632 0.0294233 9.10371 0.302405L7.0986 2.77711L3.95119 3.27758C3.60509 3.33282 3.33211 3.6058 3.27686 3.95191L2.7764 7.09932L0.301691 9.10443C0.0287092 9.32541 -0.070409 9.69751 0.0547074 10.0257L1.19538 13.0009L0.0547074 15.9761C-0.0720339 16.3043 0.0287092 16.6764 0.301691 16.8974L2.7764 18.9009L3.27686 22.0483C3.33211 22.396 3.60347 22.669 3.95119 22.7242L7.0986 23.2247L9.10371 25.6978C9.32632 25.974 9.69842 26.0715 10.0267 25.9448L13.0002 24.8057L15.9754 25.9464C16.0696 25.9822 16.1671 26 16.2662 26C16.5051 26 16.7407 25.8944 16.8983 25.6978L18.9018 23.2247L22.0492 22.7242C22.3969 22.669 22.6699 22.396 22.7252 22.0483L23.2256 18.9009L25.6987 16.8974C25.9733 16.6748 26.0708 16.3043 25.9457 15.9761L24.805 13.0009Z" fill="#F44336"/>
<path d="M10.5628 11.3756C9.21904 11.3756 8.12549 10.2821 8.12549 8.93831C8.12549 7.59453 9.21904 6.50098 10.5628 6.50098C11.9066 6.50098 13.0002 7.59453 13.0002 8.93831C13.0002 10.2821 11.9066 11.3756 10.5628 11.3756ZM10.5628 8.12587C10.1144 8.12587 9.75038 8.48984 9.75038 8.93831C9.75038 9.38678 10.1144 9.75075 10.5628 9.75075C11.0113 9.75075 11.3753 9.38678 11.3753 8.93831C11.3753 8.48984 11.0113 8.12587 10.5628 8.12587Z" fill="#FAFAFA"/>
<path d="M15.4373 19.4997C14.0936 19.4997 13 18.4061 13 17.0623C13 15.7186 14.0936 14.625 15.4373 14.625C16.7811 14.625 17.8747 15.7186 17.8747 17.0623C17.8747 18.4061 16.7811 19.4997 15.4373 19.4997ZM15.4373 16.2499C14.9905 16.2499 14.6249 16.6155 14.6249 17.0623C14.6249 17.5092 14.9905 17.8748 15.4373 17.8748C15.8842 17.8748 16.2498 17.5092 16.2498 17.0623C16.2498 16.6155 15.8842 16.2499 15.4373 16.2499Z" fill="#FAFAFA"/>
<path d="M8.93819 19.5C8.77407 19.5 8.60996 19.4513 8.46697 19.3489C8.10137 19.0873 8.01687 18.5803 8.27848 18.2147L16.4029 6.8405C16.6645 6.4749 17.1715 6.39041 17.5371 6.65202C17.9027 6.912 17.9856 7.42059 17.7256 7.78456L9.60114 19.1588C9.44028 19.3814 9.19167 19.5 8.93819 19.5Z" fill="#FAFAFA"/>
</g>
<defs>
<clipPath id="clip0_1_15630">
<rect width="26" height="26" fill="white"/>
</clipPath>
</defs>
</svg>
