<svg width="10" height="11" viewBox="0 0 10 11" fill="none" xmlns="http://www.w3.org/2000/svg">
<g clip-path="url(#clip0_1_8099)">
<path d="M9.87952 3.15034L7.09114 0.0831274C6.99049 -0.0277091 6.82704 -0.0277091 6.72638 0.0831274L6.71457 0.0961236C6.54359 0.284143 6.44938 0.534249 6.44938 0.800188C6.44938 0.971522 6.48896 1.13593 6.56247 1.28173L3.64491 4.03607C3.42162 3.81655 3.13662 3.69641 2.83475 3.69641C2.50946 3.69641 2.20367 3.83573 1.97372 4.08874L1.95623 4.10797C1.85547 4.21875 1.85547 4.39843 1.95623 4.50921L3.6267 6.34672L1.99977 8.13628C1.96722 8.17311 1.19715 9.04602 0.690868 9.74066C0.208734 10.402 0.113391 10.5232 0.108438 10.5294C0.0189248 10.6415 0.0238777 10.8107 0.119685 10.9166C0.169885 10.972 0.236078 11 0.302478 11C0.362996 11 0.423669 10.9768 0.472476 10.9298C0.476758 10.9258 0.58438 10.8229 1.18951 10.2892C1.8209 9.73226 2.61445 8.88513 2.65051 8.84648L4.2748 7.05976L5.85581 8.79886C5.90616 8.85431 5.9722 8.882 6.03819 8.882C6.10418 8.882 6.17027 8.85431 6.22057 8.79886L6.23806 8.77962C6.46806 8.52668 6.59472 8.19025 6.59472 7.83249C6.59472 7.50043 6.48545 7.18694 6.28594 6.94131L8.78988 3.73199C8.92243 3.81286 9.07189 3.85639 9.22765 3.85639C9.46946 3.85639 9.69678 3.75282 9.86771 3.56469L9.87952 3.55169C9.98028 3.4408 9.98028 3.26112 9.87952 3.15034Z" fill="black"/>
</g>
<defs>
<clipPath id="clip0_1_8099">
<rect width="10" height="11" fill="white"/>
</clipPath>
</defs>
</svg>
