<svg width="30" height="30" viewBox="0 0 30 30" fill="none" xmlns="http://www.w3.org/2000/svg">
<path d="M16.4062 11.25C16.2819 11.25 16.1627 11.2006 16.0748 11.1127C15.9869 11.0248 15.9375 10.9056 15.9375 10.7812V6.09375C15.9375 5.22351 15.5918 4.38891 14.9764 3.77356C14.3611 3.1582 13.5265 2.8125 12.6562 2.8125C11.786 2.8125 10.9514 3.1582 10.3361 3.77356C9.7207 4.38891 9.375 5.22351 9.375 6.09375V10.7812C9.375 10.9056 9.32561 11.0248 9.23771 11.1127C9.1498 11.2006 9.03057 11.25 8.90625 11.25C8.78193 11.25 8.6627 11.2006 8.57479 11.1127C8.48689 11.0248 8.4375 10.9056 8.4375 10.7812V6.09375C8.4375 4.97487 8.88197 3.90181 9.67314 3.11064C10.4643 2.31947 11.5374 1.875 12.6562 1.875C13.7751 1.875 14.8482 2.31947 15.6394 3.11064C16.4305 3.90181 16.875 4.97487 16.875 6.09375V10.7812C16.875 10.9056 16.8256 11.0248 16.7377 11.1127C16.6498 11.2006 16.5306 11.25 16.4062 11.25Z" fill="#DADCDE"/>
<path d="M17.3438 27.6562H1.40625L2.34375 8.90625H16.4062L17.3438 27.6562Z" fill="#EB423F"/>
<path d="M21.0938 27.6562H17.3438L16.4062 8.90625H20.1562L21.0938 27.6562Z" fill="#D13330"/>
<path d="M19.2463 25.3119C19.2369 25.3125 19.2275 25.3125 19.2182 25.3125C19.0987 25.3124 18.9837 25.2667 18.8968 25.1847C18.8099 25.1027 18.7576 24.9906 18.7506 24.8713L17.8131 8.93379C17.8125 8.92441 17.8125 8.91562 17.8125 8.90625H18.7512L19.6869 24.8162C19.6942 24.9404 19.6518 25.0623 19.5692 25.1553C19.4866 25.2482 19.3704 25.3046 19.2463 25.3119Z" fill="#A82A27"/>
<path d="M28.5938 27.6562H24.8438L24.7852 26.8986V26.898L23.9062 15.4688H27.6562L28.5205 26.7006V26.7012L28.5938 27.6562Z" fill="#EBA72E"/>
<path d="M26.7656 25.3102C26.7499 25.3118 26.734 25.3126 26.7182 25.3125C26.6021 25.3124 26.4901 25.2691 26.4041 25.1912C26.318 25.1132 26.264 25.0061 26.2524 24.8906L26.2354 24.723L25.3149 15.5156C25.3132 15.5001 25.3124 15.4844 25.3125 15.4688H26.2524L27.1734 24.6803L27.1852 24.7969C27.1913 24.8581 27.1854 24.92 27.1676 24.9789C27.1498 25.0379 27.1207 25.0927 27.0817 25.1404C27.0427 25.1881 26.9948 25.2276 26.9406 25.2567C26.8863 25.2858 26.8269 25.304 26.7656 25.3102Z" fill="#E09F2C"/>
<path d="M28.5938 27.6562H28.0301L26.7188 25.6887L25.4074 27.6562H24.8438L24.7852 26.8986V26.898L26.2354 24.723L26.3285 24.5836C26.3714 24.5194 26.4294 24.4668 26.4975 24.4304C26.5656 24.394 26.6416 24.375 26.7188 24.375C26.7959 24.375 26.8719 24.394 26.94 24.4304C27.0081 24.4668 27.0661 24.5194 27.109 24.5836L27.1734 24.6803L28.5205 26.7006V26.7012L28.5938 27.6562Z" fill="#E09F2C"/>
<path d="M24.8438 27.6562H12.6562L13.5938 15.4688H23.9062L24.8438 27.6562Z" fill="#F7B030"/>
<path d="M19.2188 24.375H18.2812C17.6599 24.3743 17.0641 24.1271 16.6247 23.6878C16.1854 23.2484 15.9382 22.6526 15.9375 22.0312V18.2812C15.9375 18.1569 15.9869 18.0377 16.0748 17.9498C16.1627 17.8619 16.2819 17.8125 16.4062 17.8125C16.5306 17.8125 16.6498 17.8619 16.7377 17.9498C16.8256 18.0377 16.875 18.1569 16.875 18.2812V22.0312C16.8754 22.4041 17.0237 22.7615 17.2873 23.0252C17.551 23.2888 17.9084 23.4371 18.2812 23.4375H19.2188C19.5916 23.4371 19.949 23.2888 20.2127 23.0252C20.4763 22.7615 20.6246 22.4041 20.625 22.0312V18.2812C20.625 18.1569 20.6744 18.0377 20.7623 17.9498C20.8502 17.8619 20.9694 17.8125 21.0938 17.8125C21.2181 17.8125 21.3373 17.8619 21.4252 17.9498C21.5131 18.0377 21.5625 18.1569 21.5625 18.2812V22.0312C21.5618 22.6526 21.3146 23.2484 20.8753 23.6878C20.4359 24.1271 19.8401 24.3743 19.2188 24.375Z" fill="#E9EEF2"/>
<path d="M5.625 10.7812H6.5625V13.5938H5.625V10.7812Z" fill="#DADCDE"/>
<path d="M6.09375 11.25C5.96943 11.25 5.8502 11.2006 5.76229 11.1127C5.67439 11.0248 5.625 10.9056 5.625 10.7812V6.09375C5.625 4.97487 6.06947 3.90181 6.86064 3.11064C7.65181 2.31947 8.72487 1.875 9.84375 1.875C10.9626 1.875 12.0357 2.31947 12.8269 3.11064C13.618 3.90181 14.0625 4.97487 14.0625 6.09375V10.7812C14.0625 10.9056 14.0131 11.0248 13.9252 11.1127C13.8373 11.2006 13.7181 11.25 13.5938 11.25C13.4694 11.25 13.3502 11.2006 13.2623 11.1127C13.1744 11.0248 13.125 10.9056 13.125 10.7812V6.09375C13.125 5.22351 12.7793 4.38891 12.1639 3.77356C11.5486 3.1582 10.714 2.8125 9.84375 2.8125C8.97351 2.8125 8.13891 3.1582 7.52356 3.77356C6.9082 4.38891 6.5625 5.22351 6.5625 6.09375V10.7812C6.5625 10.9056 6.51311 11.0248 6.42521 11.1127C6.3373 11.2006 6.21807 11.25 6.09375 11.25Z" fill="#E9EEF2"/>
<path d="M7.5 17.3438H4.6875V13.5938L6.09375 12.6562L7.5 13.5938V17.3438Z" fill="#F7B030"/>
</svg>
