<svg width="30" height="30" viewBox="0 0 30 30" fill="none" xmlns="http://www.w3.org/2000/svg">
<path d="M23.7891 1.81641H20.2734H16.7578C13.3658 1.81641 10.5469 4.5767 10.5469 7.96875C10.5469 11.063 12.9015 13.631 15.8789 14.0585V16.7578C15.8789 17.1131 16.0926 17.4342 16.4214 17.5697C16.7456 17.705 17.1258 17.6325 17.3793 17.3792L20.2734 14.485L20.6374 14.1211H23.7891C27.1811 14.1211 30 11.3608 30 7.96875C30 4.5767 27.1811 1.81641 23.7891 1.81641Z" fill="#FED843"/>
<path d="M23.7891 14.1211C27.1811 14.1211 30 11.3608 30 7.96875C30 4.5767 27.1811 1.81641 23.7891 1.81641H20.2734V14.485L20.6374 14.1211H23.7891Z" fill="#FABE2C"/>
<path d="M22.3828 22.0312V25.5469C22.3828 27.0762 21.1342 28.1836 19.7584 28.1836C14.6953 28.1836 9.75586 25.79 6.08203 22.1309C2.4082 18.4717 0 13.5469 0 8.48379C0 7.02949 1.18301 5.85938 2.63672 5.85938H6.15234C6.53086 5.85938 6.8666 6.10137 6.98555 6.45996L8.74336 11.7211C8.82949 11.9789 8.79141 12.2613 8.64141 12.4869L7.15078 14.7234C7.71563 15.9082 8.71523 17.2031 9.86953 18.3434C11.0244 19.483 12.334 20.468 13.5188 21.0328L15.7553 19.5422C15.982 19.3928 16.2633 19.3535 16.5211 19.4402L21.7945 21.198C22.1531 21.317 22.3828 21.6527 22.3828 22.0312Z" fill="#FF641A"/>
<path d="M22.3828 22.0316V25.5473C22.3828 27.0766 21.1342 28.184 19.7584 28.184C14.6953 28.184 9.75586 25.7904 6.08203 22.1313L9.86953 18.3438C11.0244 19.4834 12.334 20.4684 13.5188 21.0332L15.7553 19.5426C15.982 19.3932 16.2633 19.3539 16.5211 19.4406L21.7945 21.1984C22.1531 21.3174 22.3828 21.6531 22.3828 22.0316Z" fill="#F03800"/>
<path d="M16.7578 8.84766C17.2432 8.84766 17.6367 8.45416 17.6367 7.96875C17.6367 7.48334 17.2432 7.08984 16.7578 7.08984C16.2724 7.08984 15.8789 7.48334 15.8789 7.96875C15.8789 8.45416 16.2724 8.84766 16.7578 8.84766Z" fill="#814BA2"/>
<path d="M20.2734 8.84766C20.7588 8.84766 21.1523 8.45416 21.1523 7.96875C21.1523 7.48334 20.7588 7.08984 20.2734 7.08984C19.788 7.08984 19.3945 7.48334 19.3945 7.96875C19.3945 8.45416 19.788 8.84766 20.2734 8.84766Z" fill="#814BA2"/>
<path d="M21.1523 7.96875C21.1523 7.48336 20.7588 7.08984 20.2734 7.08984V8.84766C20.7588 8.84766 21.1523 8.45414 21.1523 7.96875Z" fill="#4B2746"/>
<path d="M23.7891 8.84766C24.2745 8.84766 24.668 8.45416 24.668 7.96875C24.668 7.48334 24.2745 7.08984 23.7891 7.08984C23.3037 7.08984 22.9102 7.48334 22.9102 7.96875C22.9102 8.45416 23.3037 8.84766 23.7891 8.84766Z" fill="#814BA2"/>
</svg>
