<svg width="24" height="24" viewBox="0 0 24 24" fill="none" xmlns="http://www.w3.org/2000/svg">
<g clip-path="url(#clip0_1_12430)">
<path d="M20.1259 19.6745C20.0635 19.0428 19.7249 18.4784 19.1969 18.1262L15.6175 15.7401C14.7818 15.1832 13.6646 15.2958 12.9553 16.0037L11.8114 17.1573C11.5511 17.2479 10.3475 16.7378 8.7977 15.1873C7.24727 13.6362 6.74397 12.4428 6.80988 12.2052L7.98335 11.0318C8.69195 10.3232 8.80319 9.20321 8.24702 8.36964L5.86094 4.79017C5.50867 4.26212 4.94425 3.92364 4.31256 3.86115C3.67947 3.79796 3.06288 4.02043 2.61447 4.46884L0.844282 6.23903C-1.58164 8.66495 1.57764 13.996 5.78402 18.2031C8.64367 21.0628 14.9016 25.9928 17.7481 23.1429L19.5183 21.3727C19.9667 20.9249 20.1884 20.3056 20.1259 19.6745Z" fill="url(#paint0_linear_1_12430)"/>
<path d="M13.4531 0C13.0645 0 12.75 0.314484 12.75 0.703125C12.75 1.09177 13.0645 1.40625 13.4531 1.40625C18.4931 1.40625 22.5938 5.50688 22.5938 10.5469C22.5938 10.9355 22.9082 11.25 23.2969 11.25C23.6855 11.25 24 10.9355 24 10.5469C24 4.731 19.269 0 13.4531 0ZM13.4531 2.8125C13.0645 2.8125 12.75 3.12698 12.75 3.51562C12.75 3.90427 13.0645 4.21875 13.4531 4.21875C16.9426 4.21875 19.7812 7.05736 19.7812 10.5469C19.7812 10.9355 20.0957 11.25 20.4844 11.25C20.873 11.25 21.1875 10.9355 21.1875 10.5469C21.1875 6.28214 17.7179 2.8125 13.4531 2.8125ZM13.4531 5.625C13.0645 5.625 12.75 5.93948 12.75 6.32812C12.75 6.71677 13.0645 7.03125 13.4531 7.03125C15.3915 7.03125 16.9688 8.60845 16.9688 10.5469C16.9688 10.9355 17.2832 11.25 17.6719 11.25C18.0605 11.25 18.375 10.9355 18.375 10.5469C18.375 7.83323 16.1668 5.625 13.4531 5.625ZM13.4531 8.4375C13.0645 8.4375 12.75 8.75198 12.75 9.14062C12.75 9.52927 13.0645 9.84375 13.4531 9.84375C13.8411 9.84375 14.1562 10.1589 14.1562 10.5469C14.1562 10.9355 14.4707 11.25 14.8594 11.25C15.248 11.25 15.5625 10.9355 15.5625 10.5469C15.5625 9.38372 14.6163 8.4375 13.4531 8.4375Z" fill="url(#paint1_linear_1_12430)"/>
</g>
<defs>
<linearGradient id="paint0_linear_1_12430" x1="10.0682" y1="24.0002" x2="10.0682" y2="3.85051" gradientUnits="userSpaceOnUse">
<stop stop-color="#5558FF"/>
<stop offset="1" stop-color="#00C0FF"/>
</linearGradient>
<linearGradient id="paint1_linear_1_12430" x1="18.375" y1="11.25" x2="18.375" y2="0" gradientUnits="userSpaceOnUse">
<stop stop-color="#ADDCFF"/>
<stop offset="0.5028" stop-color="#EAF6FF"/>
<stop offset="1" stop-color="#EAF6FF"/>
</linearGradient>
<clipPath id="clip0_1_12430">
<rect width="24" height="24" fill="white"/>
</clipPath>
</defs>
</svg>
