<svg width="25" height="25" viewBox="0 0 25 25" fill="none" xmlns="http://www.w3.org/2000/svg">
<g clip-path="url(#clip0_1_12763)">
<path d="M17.2616 5.79004L10.386 15.7531L9.41162 23.7236L19.5933 24.9999L21.2892 10.9155L17.2616 5.79004Z" fill="#FF641A"/>
<path d="M24.3575 0.62538C23.9719 0.239784 23.4411 0.0260636 22.8978 0.00223544C22.3064 -0.0236923 21.7003 0.175429 21.2504 0.62538L16.168 5.7246L16.6717 6.22831L17.2037 6.76029L18.7129 5.23373C20.145 6.18051 22.0798 6.01015 23.3218 4.7682L24.3575 3.73251C25.2144 2.87558 25.2144 1.48226 24.3575 0.62538ZM23.3218 2.69677L22.2861 3.73246C21.6102 4.40839 20.6017 4.55141 19.7848 4.16161L22.2861 1.66107C22.5722 1.37499 23.0357 1.37499 23.3218 1.66107C23.6072 1.94647 23.6072 2.41137 23.3218 2.69677Z" fill="#516373"/>
<path d="M18.7126 5.2334C20.1447 6.18018 22.0795 6.00981 23.3215 4.76787L24.3572 3.73218C25.2141 2.87529 25.2141 1.48198 24.3572 0.625098C23.9716 0.239502 23.4408 0.0257813 22.8975 0.00195312L16.6714 6.22803L17.2034 6.76001L18.7126 5.2334ZM22.2858 1.66079C22.5719 1.37471 23.0354 1.37471 23.3215 1.66079C23.6069 1.94619 23.6069 2.41108 23.3215 2.69648L22.2858 3.73218C21.6099 4.40811 20.6014 4.55112 19.7846 4.16133L22.2858 1.66079Z" fill="#3E4D59"/>
<path d="M17.3821 5.5166H10.1675L0 15.6488L3.62529 19.2741L7.25054 22.8994L17.3828 12.7601V5.5166H17.3821Z" fill="#FFE680"/>
<path d="M17.383 12.7601V5.5166L3.62549 19.2741L7.25073 22.8994L17.383 12.7601Z" fill="#FFC550"/>
<path d="M13.5777 10.3853L13.0461 9.85371L12.542 9.34961L11.4016 10.4901C10.5868 10.1063 9.59087 10.2305 8.91714 10.9031C8.06494 11.7553 8.06064 13.1383 8.90347 13.9963C9.22417 14.3229 9.18535 14.7784 8.91714 15.0466C8.63389 15.3298 8.16089 15.3408 7.86812 15.0317C7.59678 14.7452 7.60078 14.2916 7.88144 14.0109L6.84434 12.9752C6.1729 13.6483 6.04863 14.644 6.43242 15.4592L5.2915 16.6001L5.79561 17.1042L6.3272 17.6358L7.46758 16.4954C8.41763 16.9442 9.35703 16.6781 9.95283 16.0823C10.7411 15.294 10.8818 13.9571 9.93955 12.9603C9.66821 12.6732 9.67222 12.2202 9.95283 11.9396C10.2329 11.6581 10.6883 11.6548 10.9741 11.9258C11.2765 12.2126 11.2762 12.6868 10.9885 12.9752L12.0242 14.0109C12.6975 13.3377 12.8221 12.3414 12.4375 11.5256L13.5777 10.3853Z" fill="#FF7B4A"/>
<path d="M10.9891 12.975L12.0248 14.0107C12.698 13.3375 12.8226 12.3412 12.438 11.5254L13.5783 10.3851L13.0467 9.85352L10.9746 11.9256C11.277 12.2124 11.2768 12.6866 10.9891 12.975Z" fill="#FF435B"/>
<path d="M7.46787 16.4951C8.41792 16.9439 9.35732 16.6777 9.95313 16.0819C10.7414 15.2937 10.8821 13.9567 9.93984 12.96L8.90376 13.996C9.22446 14.3227 9.18564 14.7781 8.91743 15.0463C8.63418 15.3295 8.16118 15.3405 7.86841 15.0314L5.7959 17.1039L6.32749 17.6355L7.46787 16.4951Z" fill="#FF435B"/>
</g>
<defs>
<clipPath id="clip0_1_12763">
<rect width="25" height="25" fill="white"/>
</clipPath>
</defs>
</svg>
