<svg width="35" height="35" viewBox="0 0 35 35" fill="none" xmlns="http://www.w3.org/2000/svg">
<g clip-path="url(#clip0_1_15274)">
<path d="M17.5017 33.04L24.4353 31.289C28.393 28.0027 30.9138 23.0458 30.9138 17.4996C30.9138 8.94488 24.9179 1.7906 16.8993 0.00976562C7.51249 0.326338 0 8.03563 0 17.4996C0 22.3608 1.98242 26.7586 5.18246 29.9298L17.5017 33.04Z" fill="#CBE2FF"/>
<path d="M30.5508 17.5C30.5508 23.2364 27.7904 28.3275 23.5258 31.5191L29.817 29.9303C33.0172 26.7591 35 22.3613 35 17.5C35 7.83501 27.165 0 17.5 0C16.7464 0 16.0039 0.0477148 15.2754 0.140137C23.89 1.23307 30.5508 8.58867 30.5508 17.5Z" fill="#BED8FB"/>
<path d="M21.849 6.62713C21.849 5.73333 21.1245 5.00879 20.2307 5.00879H14.6538C12.5968 5.00879 10.9292 6.67635 10.9292 8.73335V12.8686H24.0685V8.792C24.0685 7.8982 23.3439 7.17366 22.4501 7.17366H22.3956C22.0937 7.17366 21.849 6.929 21.849 6.62713Z" fill="#365E7D"/>
<path d="M22.4501 7.17373H22.3956C22.0937 7.17373 21.849 6.929 21.849 6.62713C21.849 5.73333 21.1244 5.00879 20.2306 5.00879H19.6191V12.8686H24.0684V8.792C24.0684 7.89834 23.3438 7.17373 22.4501 7.17373Z" fill="#2B4D66"/>
<path d="M29.0556 25.454C28.6277 25.0314 28.0985 24.7046 27.4977 24.5144L22.72 23.0018L17.5009 22.8184L12.2796 23.0018L7.50187 24.5144C5.88558 25.0262 4.78711 26.5261 4.78711 28.2215V29.5267C7.84886 32.7621 12.1324 34.8292 16.8992 34.99C22.24 33.8038 26.6834 30.2338 29.0556 25.454Z" fill="#4A80AA"/>
<path d="M30.2125 29.5259V28.2206C30.2125 27.0219 29.6629 25.9213 28.7697 25.1982C26.2329 30.368 21.2214 34.1033 15.2793 34.8586C15.9965 34.9494 16.727 34.9979 17.4686 34.9992C18.1811 34.9981 18.8842 34.9568 19.5757 34.8774C23.7477 34.3844 27.4702 32.4237 30.2125 29.5259Z" fill="#407093"/>
<path d="M17.8959 34.7379C18.9547 32.6357 21.7118 26.6669 20.9256 22.9384L17.5007 21.6055L14.0726 22.9385C13.2622 26.782 16.2171 33.0062 17.1954 34.9212C17.4307 34.8647 17.6642 34.8035 17.8959 34.7379Z" fill="#E4F6FF"/>
<path d="M19.7008 33.0715L18.3122 27.6084H16.6875L15.3022 33.0566L17.0152 34.9636C17.45 34.864 17.8788 34.7485 18.301 34.6179L19.7008 33.0715Z" fill="#E28086"/>
<path d="M17.0417 34.9935C17.1836 34.9972 17.3257 34.9998 17.4684 35C17.6334 34.9998 17.798 34.9969 17.9621 34.9923L18.8444 34.0176C18.1499 34.2612 17.4355 34.4623 16.7041 34.6177L17.0417 34.9935Z" fill="#DD636E"/>
<path d="M20.4239 22.4332V19.3525H14.5737V22.4332C14.5737 24.0487 17.4988 25.8133 17.4988 25.8133C17.4988 25.8133 20.4239 24.0487 20.4239 22.4332Z" fill="#FFDDCE"/>
<path d="M24.0685 12.3257H22.9502C22.3283 12.3257 21.8241 11.8216 21.8241 11.1997V10.5834C21.8241 9.77328 21.0315 9.2005 20.2623 9.45472C18.4683 10.0477 16.5313 10.0478 14.7373 9.45513L14.7352 9.45445C13.966 9.20036 13.1735 9.77314 13.1735 10.5832V11.1997C13.1735 11.8217 12.6694 12.3258 12.0474 12.3258H10.9292V14.1673C10.9292 14.6378 11.3106 15.0193 11.7812 15.0193C11.9297 15.0193 12.0505 15.1356 12.0599 15.2838C12.2395 18.1322 14.6052 20.3871 17.4989 20.3871C20.3925 20.3871 22.7582 18.1322 22.9379 15.2838C22.9473 15.1357 23.068 15.0193 23.2165 15.0193C23.687 15.0193 24.0686 14.6379 24.0686 14.1673V12.3257H24.0685Z" fill="#FFDDCE"/>
<path d="M22.9503 12.3255C22.3284 12.3255 21.8242 11.8214 21.8242 11.1994V10.5832C21.8242 9.77306 21.0316 9.20028 20.2624 9.45451C20.05 9.52471 19.8354 9.58596 19.6194 9.63956V15.7216C19.5894 17.7005 18.5051 19.4227 16.9038 20.3535C17.0994 20.3748 17.2978 20.3867 17.4989 20.3867C20.3926 20.3867 22.7583 18.1318 22.938 15.2834C22.9473 15.1353 23.0681 15.019 23.2166 15.019C23.6871 15.019 24.0686 14.6375 24.0686 14.1669V12.3255L22.9503 12.3255Z" fill="#FFCBBE"/>
<path d="M14.5738 21.6055L12.2798 23.4694L14.6855 26.4439C14.9781 26.7289 15.4387 26.7464 15.7522 26.4846L17.5614 24.9733L14.5738 21.6055Z" fill="#F4FBFF"/>
<path d="M20.4252 21.6055L17.5615 24.9733L19.2619 26.4272C19.5734 26.6935 20.0362 26.6801 20.3318 26.3962L22.7203 23.4694L20.4252 21.6055Z" fill="#F4FBFF"/>
<path d="M14.5735 21.6055L11.2064 23.2597C10.9501 23.3856 10.8471 23.6975 10.9781 23.9513L11.6377 25.2303C11.8087 25.5617 11.7456 25.9656 11.4817 26.229C11.3459 26.3646 11.1988 26.5114 11.0713 26.6387C10.8431 26.8665 10.7611 27.203 10.8616 27.5094C11.6581 29.9373 15.4913 33.65 16.9419 34.9932C17.0395 34.9958 17.1372 34.9976 17.2352 34.9987C16.1832 32.9525 12.4554 25.1785 14.5735 21.6055Z" fill="#365E7D"/>
<path d="M23.5167 26.229C23.2528 25.9655 23.1898 25.5616 23.3607 25.2302L24.0204 23.9512C24.1513 23.6974 24.0484 23.3855 23.792 23.2596L20.4249 21.6055C22.5425 25.1776 18.8173 32.9483 17.7642 34.9971C17.8631 34.9954 17.9619 34.9929 18.0605 34.9896C19.5142 33.6433 23.3411 29.9351 24.1368 27.5095C24.2373 27.2031 24.1554 26.8665 23.9272 26.6388C23.7997 26.5114 23.6526 26.3645 23.5167 26.229Z" fill="#365E7D"/>
<path d="M17.5612 24.9727L15.7798 26.4604L16.6875 27.6076H18.3122L19.2199 26.3928L17.5612 24.9727Z" fill="#DD636E"/>
</g>
<defs>
<clipPath id="clip0_1_15274">
<rect width="35" height="35" fill="white"/>
</clipPath>
</defs>
</svg>
