<svg width="28" height="28" viewBox="0 0 28 28" fill="none" xmlns="http://www.w3.org/2000/svg">
<g clip-path="url(#clip0_1_15312)">
<path d="M5.76473 10.5695H4.11768V7.82441L4.94121 7.27539L5.76473 7.82441V10.5695Z" fill="#198080"/>
<path d="M7.76663 23.8838C7.03814 24.627 6.58838 25.6443 6.58838 26.7647V27.5882H14.0001L14.5492 26.1241L14.0001 24.2941L7.76663 23.8838Z" fill="#FCBC40"/>
<path d="M21.4118 27.5889V26.7654C21.4118 25.6451 20.9621 24.6279 20.2337 23.8848L14 24.2948V27.5889H21.4118Z" fill="#FD9D40"/>
<path d="M0 11.1184V13.5889C0 19.4922 4.80266 24.2948 10.7059 24.2948H14L14.549 16.0595L14 11.1184L7 10.5693L0 11.1184Z" fill="#FDDD41"/>
<path d="M14 11.1184V24.2948H17.2941C23.1973 24.2948 28 19.4922 28 13.5889V11.1184L21.4118 10.5693L14 11.1184Z" fill="#FCBC40"/>
<path d="M27.4023 4.91203C28.2753 3.8062 28.1824 2.22211 27.1862 1.22592C26.19 0.229664 24.6059 0.136825 23.5001 1.00977L14 9.47098H14.8235L18.9778 10.02L23.7016 9.47098L27.4023 4.91203Z" fill="#283366"/>
<path d="M0 9.4707V11.1178H14L14.549 10.1478L14 9.4707H0Z" fill="#FCBC40"/>
<path d="M14 9.4707H28V11.1178H14V9.4707Z" fill="#FD9D40"/>
<path d="M13.1764 15.2359H11.5293V16.883H13.1764V18.53H13.9999L14.5489 16.0595L13.9999 13.5889H13.1764V15.2359Z" fill="#FF6E84"/>
<path d="M14.8235 18.53V16.883H16.4706V15.2359H14.8235V13.5889H14V18.53H14.8235Z" fill="#FF3881"/>
<path d="M10.7061 21.8238H14.0002L14.5492 21.0003L14.0002 20.1768H10.7061V21.8238Z" fill="#404A80"/>
<path d="M14 20.1768H17.2941V21.8238H14V20.1768Z" fill="#283366"/>
<path d="M2.47059 3.70605H0V5.35311C0 6.71759 1.10611 7.8237 2.47059 7.8237H4.94118V6.17664C4.94118 4.81222 3.83501 3.70605 2.47059 3.70605Z" fill="#2EE6A8"/>
<path d="M9.88258 3.70605H7.41199C6.04752 3.70605 4.94141 4.81216 4.94141 6.17664V7.8237H7.41199C8.77642 7.8237 9.88258 6.71759 9.88258 5.35311V3.70605Z" fill="#24B3B3"/>
</g>
<defs>
<clipPath id="clip0_1_15312">
<rect width="28" height="28" fill="white"/>
</clipPath>
</defs>
</svg>
