<svg width="25" height="25" viewBox="0 0 25 25" fill="none" xmlns="http://www.w3.org/2000/svg">
<g clip-path="url(#clip0_1_15639)">
<path d="M18.5477 19.6473C18.5677 19.0305 18.0687 18.5182 17.4549 18.5182H17.4527V18.5178H17.544C18.1399 18.5172 18.6224 18.0337 18.6221 17.4379C18.6217 16.842 18.1382 16.3625 17.5423 16.3629C17.0454 16.3629 13.5811 16.3629 13.0532 16.3629C12.928 16.3629 12.8394 16.2406 12.8783 16.1218L13.2718 14.9207C13.6067 13.8986 13.5472 13.2026 13.5472 12.0053C13.5472 11.3011 12.9763 10.7305 12.2721 10.7305C11.6324 10.7305 11.0917 11.2043 11.0079 11.8384C10.9154 12.5402 10.8529 13.7879 9.69299 14.9049L8.87417 15.693C8.41812 16.1323 7.80968 16.3776 7.17663 16.3776H6.10107V23.455C6.39366 23.4548 6.98151 23.4548 6.98189 23.4548C8.54496 23.4538 8.4021 25.0016 10.3461 24.9999H16.9621C17.5572 24.9999 18.0395 24.5174 18.0395 23.9223C18.0395 23.327 17.5572 22.8446 16.9621 22.8446H17.1519C17.7374 22.8446 18.2375 22.3891 18.257 21.8038C18.2774 21.1919 17.7874 20.6893 17.1801 20.6893H17.4422C18.0283 20.6893 18.5288 20.2333 18.5477 19.6473Z" fill="#FFCDBF"/>
<path d="M16.9619 23.7424H10.3459C8.40191 23.7443 8.54477 22.1963 6.9817 22.1973C6.98132 22.1973 6.39347 22.1975 6.10107 22.1976V23.4552C6.39347 23.455 6.98132 23.455 6.9817 23.455C8.54477 23.454 8.40191 25.0018 10.3459 25.0001H16.9619C17.557 25.0001 18.0394 24.5176 18.0394 23.9225C18.0394 23.6875 17.9634 23.4706 17.8357 23.2936C17.6402 23.565 17.322 23.7424 16.9619 23.7424Z" fill="#FFBEAB"/>
<path d="M5.79481 15.7422H1.71328C1.40543 15.7422 1.15576 15.9919 1.15576 16.2997V23.6724C1.15576 23.9804 1.40524 24.2301 1.71328 24.2301H5.79481C6.10266 24.2301 6.35233 23.9804 6.35233 23.6724V16.2997C6.35233 15.9919 6.10266 15.7422 5.79481 15.7422Z" fill="#54A0FF"/>
<path d="M2.66486 23.6726V16.2997C2.66486 15.9919 2.91453 15.7422 3.22256 15.7422H1.71328C1.40543 15.7422 1.15576 15.9919 1.15576 16.2997V23.6724C1.15576 23.9804 1.40524 24.2301 1.71328 24.2301H3.22237C2.91453 24.2301 2.66486 23.9804 2.66486 23.6726Z" fill="#338DEF"/>
<path d="M7.03526 5.83804C7.18747 5.69251 7.10355 5.43941 6.89316 5.40927L5.26791 5.1781C5.18437 5.16609 5.11227 5.11478 5.07489 5.04058L4.348 3.59805C4.25397 3.41133 3.98217 3.41133 3.88795 3.59805L3.16125 5.04058C3.12386 5.11478 3.05157 5.16628 2.96803 5.1781L1.34297 5.40927C1.13259 5.43922 1.04848 5.69251 1.20087 5.83804L2.37675 6.9609C2.43722 7.0185 2.46468 7.10166 2.45057 7.1833L2.17286 8.76869C2.137 8.97392 2.35692 9.13051 2.54517 9.03362L3.99876 8.28498C4.07334 8.24664 4.16279 8.24664 4.23737 8.28498L5.69096 9.03362C5.87922 9.13051 6.09914 8.97392 6.06328 8.76869L5.78557 7.1833C5.77126 7.10166 5.79892 7.0185 5.85938 6.9609L7.03526 5.83804Z" fill="#FECA57"/>
<path d="M4.22508 6.89271C4.23939 6.81126 4.21192 6.7281 4.15146 6.67031L2.97539 5.54745C2.85885 5.43626 2.88116 5.26192 2.99236 5.17285C2.98435 5.17476 2.97634 5.17648 2.96795 5.17762L1.34289 5.40898C1.13251 5.43893 1.04858 5.69222 1.20079 5.83756L2.37667 6.96042C2.43713 7.01821 2.46479 7.10137 2.45048 7.18282L2.17296 8.76839C2.13692 8.97362 2.35683 9.13022 2.54509 9.03332L3.9798 8.29442L4.22508 6.89271Z" fill="#F4B537"/>
<path d="M3.11774 5.11917L4.7428 4.8878C4.82367 4.87636 4.89367 4.82753 4.93201 4.75715L4.34817 3.59805C4.25394 3.41133 3.98215 3.41133 3.88811 3.59805L3.16122 5.04058C3.14444 5.07377 3.12041 5.10219 3.0918 5.1247C3.10019 5.1226 3.10877 5.1205 3.11774 5.11917Z" fill="#F4B537"/>
<path d="M23.7736 5.83804C23.9258 5.69251 23.8417 5.43941 23.6314 5.40927L22.0063 5.1781C21.9227 5.16609 21.8505 5.11478 21.8131 5.04058L21.0864 3.59805C20.9923 3.41133 20.7204 3.41133 20.6263 3.59805L19.8994 5.04058C19.8621 5.11478 19.79 5.16628 19.7064 5.1781L18.0813 5.40927C17.8708 5.43922 17.7869 5.69251 17.9391 5.83804L19.1149 6.9609C19.1754 7.0185 19.2031 7.10166 19.1888 7.1833L18.9112 8.76869C18.8752 8.97392 19.0953 9.13051 19.2834 9.03362L20.737 8.28498C20.8117 8.24664 20.901 8.24664 20.9758 8.28498L22.4292 9.03362C22.6174 9.13051 22.8373 8.97392 22.8015 8.76869L22.5238 7.1833C22.5094 7.10166 22.5371 7.0185 22.5976 6.9609L23.7736 5.83804Z" fill="#FECA57"/>
<path d="M20.9635 6.89271C20.9778 6.81126 20.9501 6.7281 20.8897 6.67031L19.7138 5.54745C19.5973 5.43626 19.6196 5.26192 19.7306 5.17285C19.7226 5.17476 19.7146 5.17648 19.7064 5.17762L18.0813 5.40898C17.8709 5.43893 17.7868 5.69222 17.939 5.83756L19.1151 6.96042C19.1755 7.01821 19.203 7.10137 19.1887 7.18282L18.9112 8.76839C18.8753 8.97362 19.0953 9.13022 19.2835 9.03332L20.7182 8.29442L20.9635 6.89271Z" fill="#F4B537"/>
<path d="M19.856 5.11917L21.4811 4.8878C21.5621 4.87636 21.6321 4.82753 21.6703 4.75715L21.0864 3.59805C20.9924 3.41133 20.7204 3.41133 20.6264 3.59805L19.8997 5.04058C19.8829 5.07377 19.8589 5.10219 19.8301 5.1247C19.8387 5.1226 19.8471 5.1205 19.856 5.11917Z" fill="#F4B537"/>
<path d="M17.2041 3.84831C17.4503 3.61314 17.3143 3.20363 16.9743 3.15518L14.3465 2.78115C14.2115 2.76189 14.0945 2.67892 14.0343 2.55895L12.8592 0.22645C12.7069 -0.0754833 12.2673 -0.0754833 12.1153 0.22645L10.9402 2.55895C10.8797 2.67892 10.763 2.76189 10.6277 2.78115L8.00018 3.15518C7.65991 3.20363 7.52411 3.61314 7.77016 3.84831L9.67159 5.66373C9.76944 5.75719 9.81407 5.89166 9.79099 6.02345L9.342 8.58693C9.28402 8.91881 9.63974 9.17191 9.94396 9.01532L12.2942 7.80492C12.4151 7.74274 12.5593 7.74274 12.6802 7.80492L15.0305 9.01532C15.3347 9.17191 15.6904 8.91881 15.6322 8.58693L15.1834 6.02345C15.1604 5.89166 15.205 5.75719 15.3027 5.66373L17.2041 3.84831Z" fill="#FECA57"/>
<path d="M12.4024 2.49104C12.5374 2.47178 12.6541 2.38862 12.7146 2.26884L13.3013 1.1044L12.859 0.22645C12.7068 -0.0754833 12.2671 -0.0754833 12.1151 0.22645L10.94 2.55895C10.9061 2.62589 10.8544 2.68102 10.792 2.72031L12.4024 2.49104Z" fill="#F4B537"/>
<path d="M11.1168 8.29709L11.5656 5.73342C11.5887 5.60162 11.544 5.46716 11.4464 5.37389L9.54494 3.55828C9.34467 3.36716 9.39732 3.06065 9.60674 2.92676L8.00018 3.15545C7.65991 3.2039 7.52411 3.6134 7.77016 3.84858L9.67159 5.66399C9.76944 5.75745 9.81407 5.89192 9.79099 6.02372L9.342 8.5872C9.28402 8.91907 9.63955 9.17218 9.94396 9.01559L11.1134 8.41325C11.109 8.37605 11.1097 8.33714 11.1168 8.29709Z" fill="#F4B537"/>
<path d="M15.2354 20.1866C15.2354 20.4645 15.4606 20.6897 15.7383 20.6897H17.442C18.0161 20.6897 18.5066 20.252 18.5446 19.6836H15.7385C15.4606 19.6836 15.2354 19.9089 15.2354 20.1866Z" fill="#FFBEAB"/>
<path d="M15.2354 18.0147C15.2354 18.2926 15.4606 18.5178 15.7383 18.5178H17.5436C18.1147 18.5173 18.5805 18.0731 18.6182 17.5117H15.7383C15.4606 17.5117 15.2354 17.737 15.2354 18.0147Z" fill="#FFBEAB"/>
<path d="M18.2539 21.8389H15.7383C15.4606 21.8389 15.2354 22.0641 15.2354 22.3418C15.2354 22.6197 15.4606 22.845 15.7383 22.845H17.1517C17.7256 22.845 18.216 22.4073 18.2539 21.8389Z" fill="#FFBEAB"/>
</g>
<defs>
<clipPath id="clip0_1_15639">
<rect width="25" height="25" fill="white"/>
</clipPath>
</defs>
</svg>
