<svg width="13" height="13" viewBox="0 0 13 13" fill="none" xmlns="http://www.w3.org/2000/svg">
<g clip-path="url(#clip0_1_7965)">
<path d="M5.73828 12.2129C6.36931 12.2129 6.88086 11.7013 6.88086 11.0703C6.88086 10.4393 6.36931 9.92773 5.73828 9.92773C5.10725 9.92773 4.5957 10.4393 4.5957 11.0703C4.5957 11.7013 5.10725 12.2129 5.73828 12.2129Z" fill="black"/>
<path d="M9.57227 12.2129C10.2033 12.2129 10.7148 11.7013 10.7148 11.0703C10.7148 10.4393 10.2033 9.92773 9.57227 9.92773C8.94124 9.92773 8.42969 10.4393 8.42969 11.0703C8.42969 11.7013 8.94124 12.2129 9.57227 12.2129Z" fill="black"/>
<path d="M0.380857 1.54885H1.96911L3.80784 7.98567L3.66362 8.2741C3.28388 9.03277 3.83513 9.92771 4.68569 9.92771H11.0956C11.3062 9.92771 11.4765 9.75736 11.4765 9.54685C11.4765 9.33634 11.3062 9.16599 11.0956 9.16599H4.68569C4.40286 9.16599 4.21802 8.86819 4.345 8.61479L4.45026 8.40428H11.0956C11.2656 8.40428 11.4151 8.2916 11.462 8.12793L12.9854 2.79593C13.0182 2.68101 12.9951 2.55751 12.9233 2.46194C12.8512 2.36673 12.7385 2.31056 12.6191 2.31056H2.97889L2.62258 1.06346C2.57571 0.899818 2.42621 0.787109 2.25622 0.787109H0.380857C0.170345 0.787109 0 0.957454 0 1.16797C0 1.37848 0.170345 1.54885 0.380857 1.54885Z" fill="black"/>
</g>
<defs>
<clipPath id="clip0_1_7965">
<rect width="13" height="13" fill="white"/>
</clipPath>
</defs>
</svg>
