<svg width="25" height="25" viewBox="0 0 25 25" fill="none" xmlns="http://www.w3.org/2000/svg">
<path d="M22.2656 25H3.22266C2.00913 25 1.02539 24.0163 1.02539 22.8027V0.732422C1.02539 0.32793 1.35332 0 1.75781 0H19.8242C20.2287 0 20.5566 0.32793 20.5566 0.732422V23.291C20.5566 24.2349 21.3218 25 22.2656 25Z" fill="url(#paint0_linear_1_12443)"/>
<path d="M22.2656 25C21.3218 25 20.5566 24.2349 20.5566 23.291V16.6992H23.2422C23.6467 16.6992 23.9746 17.0271 23.9746 17.4316V23.291C23.9746 24.2349 23.2095 25 22.2656 25ZM4.90205 21.3675L3.92549 20.3909C3.63945 20.1049 3.63945 19.6412 3.92549 19.3551C4.21152 19.0691 4.67524 19.0691 4.96128 19.3551L5.41997 19.8138L6.85522 18.3786C7.14126 18.0925 7.60498 18.0925 7.89102 18.3786C8.17705 18.6646 8.17705 19.1283 7.89102 19.4144L5.93789 21.3675C5.65181 21.6535 5.18804 21.6535 4.90205 21.3675ZM17.1387 21.0938H9.81445C9.40996 21.0938 9.08203 20.7658 9.08203 20.3613C9.08203 19.9568 9.40996 19.6289 9.81445 19.6289H17.1387C17.5432 19.6289 17.8711 19.9568 17.8711 20.3613C17.8711 20.7658 17.5432 21.0938 17.1387 21.0938ZM4.90205 16.9729L3.92549 15.9964C3.63945 15.7104 3.63945 15.2466 3.92549 14.9606C4.21152 14.6746 4.67524 14.6746 4.96128 14.9606L5.41997 15.4193L6.85522 13.984C7.14126 13.698 7.60498 13.698 7.89102 13.984C8.17705 14.2701 8.17705 14.7338 7.89102 15.0198L5.93789 16.9729C5.65181 17.259 5.18804 17.259 4.90205 16.9729ZM17.1387 16.6992H9.81445C9.40996 16.6992 9.08203 16.3713 9.08203 15.9668C9.08203 15.5623 9.40996 15.2344 9.81445 15.2344H17.1387C17.5432 15.2344 17.8711 15.5623 17.8711 15.9668C17.8711 16.3713 17.5432 16.6992 17.1387 16.6992ZM4.90205 12.5784L3.92549 11.6019C3.63945 11.3158 3.63945 10.8521 3.92549 10.5661C4.21152 10.28 4.67524 10.28 4.96128 10.5661L5.41997 11.0248L6.85522 9.5895C7.14126 9.30347 7.60498 9.30347 7.89102 9.5895C8.17705 9.87554 8.17705 10.3393 7.89102 10.6253L5.93789 12.5784C5.65181 12.8645 5.18804 12.8645 4.90205 12.5784ZM17.1387 12.3047H9.81445C9.40996 12.3047 9.08203 11.9768 9.08203 11.5723C9.08203 11.1678 9.40996 10.8398 9.81445 10.8398H17.1387C17.5432 10.8398 17.8711 11.1678 17.8711 11.5723C17.8711 11.9768 17.5432 12.3047 17.1387 12.3047ZM17.1387 7.37305H4.44336C4.03887 7.37305 3.71094 7.04512 3.71094 6.64062V3.71094C3.71094 3.30645 4.03887 2.97852 4.44336 2.97852H17.1387C17.5432 2.97852 17.8711 3.30645 17.8711 3.71094V6.64062C17.8711 7.04512 17.5432 7.37305 17.1387 7.37305Z" fill="url(#paint1_linear_1_12443)"/>
<defs>
<linearGradient id="paint0_linear_1_12443" x1="11.6455" y1="25" x2="11.6455" y2="0" gradientUnits="userSpaceOnUse">
<stop stop-color="#ADDCFF"/>
<stop offset="0.5028" stop-color="#EAF6FF"/>
<stop offset="1" stop-color="#EAF6FF"/>
</linearGradient>
<linearGradient id="paint1_linear_1_12443" x1="13.8428" y1="25" x2="13.8428" y2="2.97852" gradientUnits="userSpaceOnUse">
<stop stop-color="#5558FF"/>
<stop offset="1" stop-color="#00C0FF"/>
</linearGradient>
</defs>
</svg>
