<svg width="24" height="24" viewBox="0 0 24 24" fill="none" xmlns="http://www.w3.org/2000/svg">
<path d="M17.6094 5.78009C17.6094 7.36853 17.0398 8.74347 15.9161 9.86737C14.7924 10.9911 13.4172 11.5607 11.8288 11.5607H11.826C10.2396 11.5602 8.86542 10.9905 7.7417 9.86737C6.6178 8.74347 6.04834 7.36853 6.04834 5.78009C6.04834 4.1922 6.6178 2.81708 7.7417 1.69336C8.86487 0.570007 10.2391 0.000549319 11.826 0H11.8288C13.4167 0 14.7918 0.569641 15.9161 1.69336C17.0398 2.81708 17.6094 4.1922 17.6094 5.78009Z" fill="#FFBB85"/>
<path d="M21.9922 19.8721C21.9922 21.1252 21.5936 22.1398 20.8085 22.8871C20.0325 23.6255 19.0062 23.9996 17.7583 23.9996H6.20215C4.95428 23.9996 3.92798 23.6255 3.15253 22.8871C2.36682 22.1393 1.96875 21.1249 1.96875 19.8721C1.96875 19.3901 1.98468 18.9133 2.01654 18.4548C2.04895 17.9861 2.1145 17.476 2.21118 16.9378C2.30859 16.3953 2.43384 15.8824 2.5838 15.4136C2.73944 14.9284 2.95001 14.4498 3.21057 13.9913C3.4812 13.5154 3.79907 13.1008 4.1554 12.7595C4.52893 12.4023 4.9856 12.1154 5.51349 11.9062C6.03955 11.6982 6.62274 11.5928 7.24677 11.5928C7.49158 11.5928 7.7287 11.6929 8.18573 11.9907C8.47174 12.1772 8.80133 12.3896 9.16516 12.6222C9.47937 12.8225 9.90491 13.0104 10.431 13.1801C10.8933 13.3297 11.3626 13.4132 11.8262 13.4277C11.8773 13.4295 11.9284 13.4304 11.9795 13.4304C12.4944 13.4304 13.0151 13.346 13.5286 13.1801C14.0546 13.0104 14.4807 12.8225 14.7947 12.6222C15.1624 12.3873 15.492 12.175 15.7738 11.9912C16.2312 11.6929 16.468 11.5928 16.7133 11.5928C17.3368 11.5928 17.92 11.6982 18.4464 11.9062C18.9743 12.1154 19.431 12.4028 19.8041 12.7595C20.161 13.1008 20.4789 13.5154 20.7493 13.9913C21.0101 14.4501 21.221 14.9284 21.3761 15.4131C21.5262 15.8824 21.6519 16.3953 21.7493 16.9382C21.8454 17.4769 21.9111 17.987 21.9434 18.4545C21.9758 18.9115 21.9917 19.3883 21.9922 19.8721Z" fill="#6AA9FF"/>
<path d="M11.8289 11.5607H11.8262V0H11.8289C13.4168 0 14.7919 0.569641 15.9162 1.69336C17.0399 2.81708 17.6096 4.1922 17.6096 5.78009C17.6096 7.36853 17.0399 8.74347 15.9162 9.86737C14.7925 10.9911 13.4174 11.5607 11.8289 11.5607Z" fill="#F5A86C"/>
<path d="M21.9922 19.8721C21.9922 21.1252 21.5936 22.1398 20.8084 22.8871C20.0324 23.6255 19.0061 23.9996 17.7582 23.9996H11.8262V13.4277C11.8773 13.4295 11.9283 13.4304 11.9794 13.4304C12.4943 13.4304 13.0151 13.346 13.5285 13.1801C14.0546 13.0104 14.4807 12.8225 14.7947 12.6222C15.1624 12.3873 15.4919 12.175 15.7737 11.9912C16.2311 11.6929 16.4679 11.5928 16.7133 11.5928C17.3367 11.5928 17.9199 11.6982 18.4464 11.9062C18.9742 12.1154 19.4309 12.4028 19.8041 12.7595C20.1609 13.1008 20.4788 13.5154 20.7493 13.9913C21.01 14.4501 21.2209 14.9284 21.376 15.4131C21.5262 15.8824 21.6518 16.3953 21.7492 16.9382C21.8453 17.4769 21.9111 17.987 21.9433 18.4545C21.9757 18.9115 21.9916 19.3883 21.9922 19.8721Z" fill="#2682FF"/>
</svg>
