<svg width="24" height="24" viewBox="0 0 24 24" fill="none" xmlns="http://www.w3.org/2000/svg">
<path d="M21.5315 22.4246V23.9465H20.9976V21.8906C21.2924 21.8906 21.5315 22.1297 21.5315 22.4246Z" fill="#222135"/>
<path d="M22.1639 0.342248V19.0086C22.1639 19.1977 22.0107 19.3509 21.8217 19.3509H0.837985C0.37657 19.3509 0 18.9743 0 18.5102V0.342248C0 0.15323 0.15323 0 0.211747 0H21.6912C22.0107 0 22.1639 0.15323 22.1639 0.342248Z" fill="#BBCCFF"/>
<path d="M1.05957 1.0625H21.1014V18.2896H1.05957V1.0625Z" fill="white"/>
<g opacity="0.3">
<path d="M3.43597 0.522434C3.43597 0.613409 3.36193 0.685328 3.27097 0.685328H1.70553C1.61456 0.685328 1.54053 0.613409 1.54053 0.522434C1.54053 0.431458 1.61456 0.357422 1.70553 0.357422H3.27097C3.36193 0.357422 3.43597 0.431458 3.43597 0.522434Z" fill="white"/>
<path d="M5.1336 0.522434C5.1336 0.613409 5.05956 0.685328 4.9686 0.685328H3.93062C3.83966 0.685328 3.76562 0.613409 3.76562 0.522434C3.76562 0.431458 3.83966 0.357422 3.93062 0.357422H4.9686C5.05956 0.357422 5.1336 0.431458 5.1336 0.522434Z" fill="white"/>
</g>
<path d="M2.06171 2.60193C2.27026 2.60193 2.43933 2.43286 2.43933 2.2243C2.43933 2.01575 2.27026 1.84668 2.06171 1.84668C1.85315 1.84668 1.68408 2.01575 1.68408 2.2243C1.68408 2.43286 1.85315 2.60193 2.06171 2.60193Z" fill="#FDDF8C"/>
<path d="M2.97723 2.60193C3.18579 2.60193 3.35486 2.43286 3.35486 2.2243C3.35486 2.01575 3.18579 1.84668 2.97723 1.84668C2.76868 1.84668 2.59961 2.01575 2.59961 2.2243C2.59961 2.43286 2.76868 2.60193 2.97723 2.60193Z" fill="#15BE9D"/>
<path d="M3.89227 2.60193C4.10083 2.60193 4.2699 2.43286 4.2699 2.2243C4.2699 2.01575 4.10083 1.84668 3.89227 1.84668C3.68372 1.84668 3.51465 2.01575 3.51465 2.2243C3.51465 2.43286 3.68372 2.60193 3.89227 2.60193Z" fill="#FF7581"/>
<path d="M16.9619 20.96H23.9084V23.9345H16.9619V20.96Z" fill="#34324C"/>
<path d="M23.9084 11.0977H18.4658C17.756 11.0977 17.1709 11.6544 17.1357 12.3635L16.9619 21.1078H23.9084V11.0977Z" fill="#D7E9F9"/>
<path d="M22.0839 19.6357L21.083 20.6038L20.0835 19.6357L20.8316 11.4092H21.3358L22.0839 19.6357Z" fill="#FDDF8C"/>
<path d="M21.083 20.6038L21.7982 19.4323L21.083 11.4092H21.3359L22.084 19.6357L21.083 20.6038Z" fill="#F2CF77"/>
<path d="M22.076 11.0986L21.0966 12.078L20.1172 11.0986H22.076Z" fill="#FDDF8C"/>
<path d="M12.1093 15.4445C12.1034 15.6411 12.034 15.8518 11.9474 16.0414C11.7754 16.4181 11.3862 16.648 10.9721 16.639L10.803 16.6354C10.7865 16.6368 10.77 16.6382 10.7549 16.6362C10.025 16.6152 9.76646 16.1484 9.7859 15.4677C9.79487 15.2245 9.89147 15.0061 10.052 14.8171L8.61789 14.6101C8.43166 14.5879 8.30244 14.4272 8.30573 14.2435L8.30904 14.205C8.33428 14.0061 8.51662 13.8675 8.71657 13.8951L11.1626 14.2549C11.1929 14.259 11.2218 14.2665 11.2469 14.2784C11.2527 14.2788 11.2551 14.2777 11.2585 14.279L11.2877 14.2807C12.0152 14.3028 12.1278 14.7613 12.1093 15.4445Z" fill="#FDC7B4"/>
<path d="M17.1982 11.0986C16.8743 11.0989 16.5778 11.2804 16.4303 11.5687L15.0809 14.2059L11.1609 14.2548L10.8662 16.6667L15.2344 17.7769C15.6922 17.893 16.1779 17.8001 16.5606 17.5234L19.0672 15.7111L17.1982 11.0986Z" fill="#7B94F2"/>
<path d="M19.0684 15.7111L16.5603 17.5235C16.1783 17.8003 15.6933 17.8933 15.2353 17.7758L10.8662 16.6658L10.9397 16.0413L14.8483 17.0336C15.3063 17.1487 15.7913 17.0582 16.1734 16.7814L18.7426 14.9053L19.0684 15.7111Z" fill="#4C4EE1"/>
<path d="M19.3391 20.839L20.0562 11.0986H17.1984L16.7568 23.2381C18.1131 23.2381 19.2395 22.1915 19.3391 20.839Z" fill="#7B94F2"/>
<path d="M23.9081 11.0986H22.1108L22.8279 20.839C22.8865 21.6342 23.3016 22.3216 23.9081 22.7547V11.0986Z" fill="#7B94F2"/>
<path d="M23.9016 5.753C24.147 6.42108 23.9319 7.66684 23.2679 7.97498C22.7592 8.21108 22.1286 7.61405 21.9399 6.86463C21.7507 6.11349 22.0392 5.39295 22.5831 5.25597C23.1281 5.1187 23.6345 5.02589 23.9016 5.753Z" fill="#34324C"/>
<path d="M20.0538 6.19801C20.2426 6.94743 19.954 7.66797 19.409 7.80524C18.8652 7.94222 18.2697 7.44431 18.081 6.69489C17.8918 5.94376 18.1803 5.22321 18.7242 5.08623C19.2692 4.94896 19.8646 5.44687 20.0538 6.19801Z" fill="#34324C"/>
<path d="M20.0483 11.0986H21.0838L19.9673 12.1473L20.0483 11.0986Z" fill="#C5DAF5"/>
<path d="M22.1884 12.1473L21.1909 11.2541L21.0254 11.0986H22.1112L22.1884 12.1473Z" fill="#C5DAF5"/>
<path d="M20.0557 9.6084H22.1107V11.0994H20.0557V9.6084Z" fill="#FDC7B4"/>
<path d="M22.1107 9.6084V10.6768C21.383 10.711 20.7015 10.5369 20.0557 10.1887V9.6084H22.1107Z" fill="#EFB5A3"/>
<path d="M23.0882 8.39731C23.3653 8.39731 23.5899 8.13523 23.5899 7.81194C23.5899 7.48864 23.3653 7.22656 23.0882 7.22656C22.8111 7.22656 22.5864 7.48864 22.5864 7.81194C22.5864 8.13523 22.8111 8.39731 23.0882 8.39731Z" fill="#FDC7B4"/>
<path d="M23.2892 8.09476C23.2722 8.09476 23.2555 8.08782 23.2433 8.07419C23.221 8.04883 23.2234 8.01009 23.2485 7.9876C23.3045 7.93833 23.3354 7.87591 23.3354 7.81204C23.3354 7.74818 23.3045 7.68576 23.2485 7.63648C23.2234 7.614 23.221 7.57525 23.2433 7.5499C23.2658 7.52479 23.3043 7.52215 23.3299 7.54464C23.4124 7.61759 23.4578 7.71254 23.4578 7.81204C23.4578 7.91154 23.4124 8.0065 23.3299 8.07945C23.3181 8.08973 23.3035 8.09476 23.2892 8.09476Z" fill="#EFB5A3"/>
<path d="M19.0105 8.39731C19.2876 8.39731 19.5123 8.13523 19.5123 7.81194C19.5123 7.48864 19.2876 7.22656 19.0105 7.22656C18.7334 7.22656 18.5088 7.48864 18.5088 7.81194C18.5088 8.13523 18.7334 8.39731 19.0105 8.39731Z" fill="#FDC7B4"/>
<path d="M18.8097 8.09476C18.8267 8.09476 18.8435 8.08782 18.8557 8.07419C18.8779 8.04883 18.8755 8.01009 18.8504 7.9876C18.7944 7.93833 18.7636 7.87591 18.7636 7.81204C18.7636 7.74818 18.7944 7.68576 18.8504 7.63648C18.8755 7.614 18.8779 7.57525 18.8557 7.5499C18.8332 7.52479 18.7947 7.52215 18.7691 7.54464C18.6866 7.61759 18.6411 7.71254 18.6411 7.81204C18.6411 7.91154 18.6866 8.0065 18.7691 8.07945C18.7808 8.08973 18.7954 8.09476 18.8097 8.09476Z" fill="#EFB5A3"/>
<path d="M23.1557 5.23014V8.25131C23.1557 9.3963 22.228 10.3241 21.083 10.3241C19.938 10.3241 19.0103 9.3963 19.0103 8.25131V5.23014C19.0103 5.15773 19.0689 5.10254 19.1413 5.10254H23.0247C23.0971 5.10254 23.1557 5.15773 23.1557 5.23014Z" fill="#FDC7B4"/>
<path d="M23.9322 5.8611C24.121 6.61052 23.8325 7.33106 23.2874 7.46833C22.7436 7.60531 22.1482 7.1074 21.9594 6.35798C21.7702 5.60684 22.0588 4.8863 22.6026 4.74932C23.1476 4.61205 23.7431 5.10996 23.9322 5.8611Z" fill="#34324C"/>
<path d="M20.8853 3.53616C22.1009 3.66462 23.0133 4.48594 22.9199 5.36999C22.8267 6.25217 21.7627 6.86463 20.5472 6.73617C19.3288 6.60741 18.0699 6.04367 18.1631 5.16148C18.2565 4.27744 19.6669 3.40741 20.8853 3.53616Z" fill="#34324C"/>
<path d="M20.4532 7.67346C20.4532 7.81729 20.3743 7.93306 20.2761 7.93306C20.1778 7.93306 20.0972 7.81729 20.0972 7.67346C20.0972 7.52963 20.1778 7.41211 20.2761 7.41211C20.3743 7.41211 20.4532 7.52963 20.4532 7.67346Z" fill="#333333"/>
<path d="M22.0704 7.67346C22.0704 7.81729 21.9915 7.93306 21.8933 7.93306C21.795 7.93306 21.7144 7.81729 21.7144 7.67346C21.7144 7.52963 21.795 7.41211 21.8933 7.41211C21.9915 7.41211 22.0704 7.52963 22.0704 7.67346Z" fill="#333333"/>
<path d="M20.3606 8.79102C20.3601 8.80157 20.3574 8.81148 20.3574 8.82214C20.3574 9.22322 20.6826 9.54835 21.0836 9.54835C21.4847 9.54835 21.8098 9.22322 21.8098 8.82214C21.8098 8.81148 21.8071 8.80157 21.8067 8.79102H20.3606Z" fill="white"/>
<path d="M11.1611 13.1836C13.0599 13.1836 14.5991 11.6444 14.5991 9.74562C14.5991 7.84686 13.0599 6.30762 11.1611 6.30762C9.26239 6.30762 7.72314 7.84686 7.72314 9.74562C7.72314 11.6444 9.26239 13.1836 11.1611 13.1836Z" fill="#FF7581"/>
<path d="M12.5011 9.97939L10.6112 11.2884C10.4217 11.4194 10.1631 11.2848 10.1631 11.0546L10.1649 8.43486C10.1666 8.20636 10.4235 8.07174 10.613 8.20281L12.5011 9.5118C12.6641 9.62514 12.6641 9.86605 12.5011 9.97939Z" fill="white"/>
</svg>
