<svg width="25" height="25" viewBox="0 0 25 25" fill="none" xmlns="http://www.w3.org/2000/svg">
<g clip-path="url(#clip0_1_15409)">
<path d="M22.8025 6.98242H21.0023C21.26 7.93428 21.3983 8.93467 21.3983 9.96689C21.3983 16.2704 16.2701 21.3986 9.9666 21.3986C9.41963 21.3986 8.87383 21.3581 8.33398 21.2801C8.67173 22.0601 9.44873 22.6074 10.3514 22.6074H20.7314L23.8374 24.8604C23.9648 24.9529 24.1157 25 24.2675 25C24.3811 25 24.4952 24.9736 24.6001 24.92C24.8454 24.795 24.9998 24.5429 24.9998 24.2676V9.17969C24.9998 7.96812 24.0141 6.98242 22.8025 6.98242Z" fill="#F44336"/>
<path d="M14.4043 8.72363L12.7441 9.94868V10.4622L14.4043 11.6873V8.72363Z" fill="#F44336"/>
<path d="M19.9337 9.96689C19.9337 4.47114 15.4626 0 9.96689 0C4.47119 0 0 4.47114 0 9.96689C0 11.8794 0.538477 13.7229 1.56099 15.3232L0.045459 19.4238C-0.0536621 19.692 0.0123535 19.9935 0.214551 20.1957C0.354395 20.3355 0.54165 20.4102 0.732568 20.4102C0.817725 20.4102 0.903613 20.3953 0.986377 20.3647L5.29443 18.7725C6.72642 19.5332 8.33418 19.9337 9.96685 19.9337C15.4626 19.9337 19.9337 15.4626 19.9337 9.96689ZM3.85742 11.8165V8.5938C3.85742 7.43608 4.79932 6.49419 5.95703 6.49419H10.6445C11.654 6.49419 12.4991 7.2103 12.6991 8.16113L14.7019 6.6833C14.9242 6.51919 15.2201 6.49424 15.4668 6.61885C15.7136 6.74341 15.8692 6.99624 15.8692 7.27266V13.1377C15.8692 13.4141 15.7136 13.6669 15.4668 13.7915C15.3625 13.8442 15.2494 13.8701 15.1369 13.8701C14.9831 13.8701 14.8303 13.8218 14.7019 13.7271L12.6991 12.2492C12.4991 13.2 11.654 13.9162 10.6446 13.9162H5.95708C4.79932 13.9161 3.85742 12.9742 3.85742 11.8165Z" fill="#F44336"/>
<path d="M11.2793 11.8164V8.59375C11.2793 8.24375 10.9945 7.95898 10.6445 7.95898H5.95703C5.60703 7.95898 5.32227 8.24375 5.32227 8.59375V11.8164C5.32227 12.1664 5.60703 12.4512 5.95703 12.4512H10.6445C10.9946 12.4512 11.2793 12.1664 11.2793 11.8164Z" fill="#D41000"/>
</g>
<defs>
<clipPath id="clip0_1_15409">
<rect width="25" height="25" fill="white"/>
</clipPath>
</defs>
</svg>
