<svg width="30" height="30" viewBox="0 0 30 30" fill="none" xmlns="http://www.w3.org/2000/svg">
<path d="M16.9694 6.1875H3.28228C1.47702 6.1875 0 7.66452 0 9.46978V20.531C0 22.3363 1.47702 23.8133 3.28228 23.8133H16.9694C18.7746 23.8133 20.2516 22.3363 20.2516 20.531V9.46978C20.2516 7.6317 18.7746 6.1875 16.9694 6.1875Z" fill="black"/>
<path d="M27.5709 7.99232C27.374 8.02514 27.177 8.12361 27.0129 8.22208L21.8926 11.1761V18.791L27.0458 21.7451C27.9976 22.303 29.1792 21.9748 29.7372 21.023C29.9013 20.7276 29.9998 20.3993 29.9998 20.0383V9.89604C29.9998 8.6816 28.851 7.69692 27.5709 7.99232Z" fill="black"/>
</svg>
