<svg width="30" height="30" viewBox="0 0 30 30" fill="none" xmlns="http://www.w3.org/2000/svg">
<path d="M19.8375 3.12539C19.5464 2.94264 19.2138 2.83649 18.8707 2.81682C18.5276 2.79715 18.1851 2.8646 17.875 3.01289L5.825 7.06289C4.94705 7.35662 4.18373 7.91905 3.64309 8.67056C3.10245 9.42208 2.81187 10.3246 2.8125 11.2504C2.81323 11.3793 2.8402 11.5068 2.89177 11.625C2.94335 11.7432 3.01845 11.8497 3.1125 11.9379C3.2852 12.0997 3.51334 12.1892 3.75 12.1879H3.825L20.075 10.9379C20.3104 10.919 20.53 10.8119 20.6899 10.6381C20.8498 10.4643 20.9383 10.2366 20.9375 10.0004V5.16289C20.9469 4.75698 20.8504 4.35563 20.6575 3.99836C20.4646 3.64109 20.182 3.34022 19.8375 3.12539Z" fill="#FB8C00"/>
<path d="M22.5 9.0625H5C3.79188 9.0625 2.8125 10.0419 2.8125 11.25V25C2.8125 26.2081 3.79188 27.1875 5 27.1875H22.5C23.7081 27.1875 24.6875 26.2081 24.6875 25V11.25C24.6875 10.0419 23.7081 9.0625 22.5 9.0625Z" fill="#FBC02D"/>
<path d="M25 14.0625H21.875C20.7976 14.0625 19.7642 14.4905 19.0024 15.2524C18.2405 16.0142 17.8125 17.0476 17.8125 18.125C17.8125 19.2024 18.2405 20.2358 19.0024 20.9976C19.7642 21.7595 20.7976 22.1875 21.875 22.1875H25C25.5791 22.1842 26.1336 21.9527 26.5432 21.5432C26.9527 21.1336 27.1842 20.5791 27.1875 20V16.25C27.1842 15.6709 26.9527 15.1164 26.5432 14.7068C26.1336 14.2973 25.5791 14.0658 25 14.0625Z" fill="#FB8C00"/>
<path d="M21.875 19.0625C22.3928 19.0625 22.8125 18.6428 22.8125 18.125C22.8125 17.6072 22.3928 17.1875 21.875 17.1875C21.3572 17.1875 20.9375 17.6072 20.9375 18.125C20.9375 18.6428 21.3572 19.0625 21.875 19.0625Z" fill="#FBC02D"/>
</svg>
